<svg width="282" height="512" viewBox="0 0 282 512" fill="none" xmlns="http://www.w3.org/2000/svg">
<path fill-rule="evenodd" clip-rule="evenodd" d="M166 512C177.046 512 186 503.046 186 492L186 286H253C264.046 286 273 277.046 273 266V206C273 194.954 264.046 186 253 186H186V135C186 115.67 201.67 100 221 100H261.5C272.546 100 281.5 91.0457 281.5 80V20C281.5 8.9543 272.546 -8.15417e-06 261.5 -7.67135e-06L221 -5.90104e-06C146.442 -2.64199e-06 86 60.4415 86 135V186H20C8.9543 186 0 194.954 0 206V266C0 277.046 8.95431 286 20 286H86L86 492C86 503.046 94.9543 512 106 512H166Z" fill="white"/>
</svg>
