<svg width="346" height="483" viewBox="0 0 346 483" fill="none" xmlns="http://www.w3.org/2000/svg">
<path fill-rule="evenodd" clip-rule="evenodd" d="M204.583 465.781C254.494 390.627 346 243.332 346 173.602C346 77.7242 268.545 0 173 0C77.4547 0 0 77.7242 0 173.602C0 243.332 91.5062 390.627 141.417 465.781C156.613 488.662 189.387 488.662 204.583 465.781ZM173 227C202.823 227 227 202.823 227 173C227 143.177 202.823 119 173 119C143.177 119 119 143.177 119 173C119 202.823 143.177 227 173 227Z" fill="white"/>
</svg>
