<svg width="790" height="148" viewBox="0 0 790 148" fill="none" xmlns="http://www.w3.org/2000/svg">
<path fill-rule="evenodd" clip-rule="evenodd" d="M106.993 65.1185C104.801 35.9494 81.6873 13 53.4966 13C25.3059 13 2.19202 35.9494 0 65.1185C3.0923 37.8187 25.8641 16.6223 53.4966 16.6223C81.1291 16.6223 103.901 37.8187 106.993 65.1185Z" fill="#FCB040"/>
<mask id="mask0_209_8" style="mask-type:alpha" maskUnits="userSpaceOnUse" x="0" y="16" width="107" height="107">
<circle cx="53.3713" cy="69.6287" r="53.3713" fill="white"/>
</mask>
<g mask="url(#mask0_209_8)">
<path fill-rule="evenodd" clip-rule="evenodd" d="M54.1838 80.3402C68.2331 82.2808 84.6429 87.6698 97.9786 99.8512C99.7983 101.513 101.241 103.086 102.344 104.573C112.379 95.7933 126.276 78.7018 106.617 75.7676C88.3955 73.048 65.8619 77.2298 54.1838 80.3402Z" fill="#FCB040"/>
<path fill-rule="evenodd" clip-rule="evenodd" d="M52.2558 124.965C52.2236 124.699 52.1849 124.426 52.1396 124.147C49.3513 106.968 39.2661 91.1443 32.2222 81.8228C46.2578 80.0779 75.4967 81.7471 96.7198 101.075C119.171 121.522 82.5208 127.97 61.3895 128.638L52.2558 124.965Z" fill="#8CC63E"/>
<path fill-rule="evenodd" clip-rule="evenodd" d="M15.1594 45.8246C4.43507 51.7381 -9.53674e-06 65.4943 -9.53674e-06 71.2574L-12.7791 74.6401L10.6492 122.374C25.0569 130.935 53.0957 143.271 49.9886 124.128C46.1048 100.198 28.0638 78.8998 23.8041 74.139C32.4237 79.8519 38.8383 75.7677 40.9681 73.0114C44.5596 73.3037 52.7449 73.8884 52.7449 73.8884L57.631 77.6469C57.631 77.6469 60.0716 75.9253 61.7509 74.1517L57.1298 71.6847L58.856 71.81L62.1266 73.7386C62.2658 73.5787 62.3967 73.4194 62.5171 73.262C62.8589 72.7248 63.0865 71.7309 63.378 70.4583C63.8343 68.4657 64.4471 65.7898 65.8998 63.1139C65.8998 62.6128 63.5194 61.2346 63.1435 61.2346C62.7676 61.2346 61.7654 61.1094 61.3895 60.9841C61.0888 60.8838 40.2164 50.4601 37.5854 47.5786C34.2128 46.5055 31.9188 46.2296 29.0966 45.8902C27.306 45.6749 25.3028 45.434 22.6765 44.9476C21.1731 39.3098 20.672 35.3007 20.672 35.3007C18.7927 35.1754 15.1594 41.8155 15.1594 45.8246ZM33.451 51.3371C34.4533 51.0866 36.8337 51.2119 36.8337 51.2119C38.7129 51.3371 37.7107 53.467 37.2095 53.9681C35.3303 52.4647 33.451 51.3371 33.451 51.3371Z" fill="#818286"/>
<path fill-rule="evenodd" clip-rule="evenodd" d="M84.4419 70.7964V73.4315C86.5185 73.2774 88.6122 73.1651 90.7061 73.1032V67.4076L84.4419 70.7964ZM103.235 68.877V73.4176C104.331 73.5138 105.418 73.63 106.492 73.7677V67.4989L104.112 60.9841L99.6013 56.8497L94.9926 60.3062L90.9567 67.191L90.9567 73.0961C92.2947 73.0591 93.6325 73.043 94.9658 73.0499V68.877H103.235ZM84.4419 70.5118L90.7061 67.123L90.7061 67.123L94.4743 60.695L94.0888 60.9841L88.5763 65.7449L84.4419 70.5057V70.5118ZM99.8519 65.369C100.89 65.369 101.731 64.5276 101.731 63.4897C101.731 62.4519 100.89 61.6105 99.8519 61.6105C98.814 61.6105 97.9727 62.4519 97.9727 63.4897C97.9727 64.5276 98.814 65.369 99.8519 65.369Z" fill="#818286"/>
</g>
<path fill-rule="evenodd" clip-rule="evenodd" d="M179.03 121H154.844V56H170.968C195.658 56 193.642 80.186 185.076 85.7287C207.247 99.8372 188.603 121 179.03 121ZM166.937 66.5814H173.487C177.661 66.5814 181.045 69.9653 181.045 74.1395C181.045 78.3138 177.661 81.6977 173.487 81.6977H166.937V66.5814ZM175.503 92.7829H166.937V109.915H175.503C180.233 109.915 184.068 106.08 184.068 101.349C184.068 96.618 180.233 92.7829 175.503 92.7829Z" fill="#818286"/>
<mask id="path-8-outside-1_209_8" maskUnits="userSpaceOnUse" x="205" y="55" width="67" height="68" fill="black">
<rect fill="white" x="205" y="55" width="67" height="68"/>
<path fill-rule="evenodd" clip-rule="evenodd" d="M238 120.996C220.281 120.729 206 106.282 206 88.5C206 70.5507 220.551 56 238.5 56C256.449 56 271 70.5507 271 88.5C271 96.2724 268.272 103.408 263.72 109H249.998C257.161 104.974 262 97.3021 262 88.5C262 75.5213 251.479 65 238.5 65C225.521 65 215 75.5213 215 88.5C215 101.312 225.252 111.729 238 111.995V120.996Z"/>
</mask>
<path fill-rule="evenodd" clip-rule="evenodd" d="M238 120.996C220.281 120.729 206 106.282 206 88.5C206 70.5507 220.551 56 238.5 56C256.449 56 271 70.5507 271 88.5C271 96.2724 268.272 103.408 263.72 109H249.998C257.161 104.974 262 97.3021 262 88.5C262 75.5213 251.479 65 238.5 65C225.521 65 215 75.5213 215 88.5C215 101.312 225.252 111.729 238 111.995V120.996Z" fill="#818286"/>
<path d="M238 120.996L237.985 121.996L239 122.011V120.996H238ZM263.72 109V110H264.196L264.496 109.631L263.72 109ZM249.998 109L249.508 108.128L246.178 110H249.998V109ZM238 111.995H239V111.015L238.021 110.995L238 111.995ZM205 88.5C205 106.83 219.721 121.721 237.985 121.996L238.015 119.996C220.842 119.737 207 105.735 207 88.5H205ZM238.5 55C219.998 55 205 69.9985 205 88.5H207C207 71.103 221.103 57 238.5 57V55ZM272 88.5C272 69.9985 257.002 55 238.5 55V57C255.897 57 270 71.103 270 88.5H272ZM264.496 109.631C269.187 103.867 272 96.5106 272 88.5H270C270 96.0342 267.356 102.948 262.945 108.369L264.496 109.631ZM249.998 110H263.72V108H249.998V110ZM250.488 109.872C257.953 105.676 263 97.6779 263 88.5H261C261 96.9262 256.369 104.272 249.508 108.128L250.488 109.872ZM263 88.5C263 74.969 252.031 64 238.5 64V66C250.926 66 261 76.0736 261 88.5H263ZM238.5 64C224.969 64 214 74.969 214 88.5H216C216 76.0736 226.074 66 238.5 66V64ZM214 88.5C214 101.857 224.688 112.717 237.979 112.995L238.021 110.995C225.816 110.74 216 100.766 216 88.5H214ZM239 120.996V111.995H237V120.996H239Z" fill="#818286" mask="url(#path-8-outside-1_209_8)"/>
<mask id="path-10-outside-2_209_8" maskUnits="userSpaceOnUse" x="617" y="55" width="67" height="67" fill="black">
<rect fill="white" x="617" y="55" width="67" height="67"/>
<path fill-rule="evenodd" clip-rule="evenodd" d="M650.5 121C668.449 121 683 106.449 683 88.5C683 70.5507 668.449 56 650.5 56C632.551 56 618 70.5507 618 88.5C618 106.449 632.551 121 650.5 121ZM650.5 112C663.479 112 674 101.479 674 88.5C674 75.5213 663.479 65 650.5 65C637.521 65 627 75.5213 627 88.5C627 101.479 637.521 112 650.5 112Z"/>
</mask>
<path fill-rule="evenodd" clip-rule="evenodd" d="M650.5 121C668.449 121 683 106.449 683 88.5C683 70.5507 668.449 56 650.5 56C632.551 56 618 70.5507 618 88.5C618 106.449 632.551 121 650.5 121ZM650.5 112C663.479 112 674 101.479 674 88.5C674 75.5213 663.479 65 650.5 65C637.521 65 627 75.5213 627 88.5C627 101.479 637.521 112 650.5 112Z" fill="#FCB040"/>
<path d="M682 88.5C682 105.897 667.897 120 650.5 120V122C669.002 122 684 107.002 684 88.5H682ZM650.5 57C667.897 57 682 71.103 682 88.5H684C684 69.9985 669.002 55 650.5 55V57ZM619 88.5C619 71.103 633.103 57 650.5 57V55C631.998 55 617 69.9985 617 88.5H619ZM650.5 120C633.103 120 619 105.897 619 88.5H617C617 107.002 631.998 122 650.5 122V120ZM673 88.5C673 100.926 662.926 111 650.5 111V113C664.031 113 675 102.031 675 88.5H673ZM650.5 66C662.926 66 673 76.0736 673 88.5H675C675 74.969 664.031 64 650.5 64V66ZM628 88.5C628 76.0736 638.074 66 650.5 66V64C636.969 64 626 74.969 626 88.5H628ZM650.5 111C638.074 111 628 100.926 628 88.5H626C626 102.031 636.969 113 650.5 113V111Z" fill="#FCB040" mask="url(#path-10-outside-2_209_8)"/>
<path d="M319 104.065C319 114.523 309.874 123 298.616 123C289.287 123 281.421 117.179 279 109.233L288.672 103.094C298.616 120.572 311.542 106.978 305.576 101.152C301.632 97.3005 291.743 88.1525 286.086 82.9196C283.362 80.4007 282.209 77.2132 282.209 73.4783C282.209 63.8253 288.672 56 301.102 56C308.593 56 315.01 60.4949 317.678 66.8738L309.056 73.9638C299.61 61.8261 290.128 70.5304 295.135 75.4203C306.571 89.0145 319 92.8986 319 104.065Z" fill="#818286"/>
<path d="M366 104.065C366 114.523 356.874 123 345.616 123C336.287 123 328.421 117.179 326 109.233L335.672 103.094C345.616 120.572 358.542 106.978 352.576 101.152C348.632 97.3005 338.743 88.1525 333.086 82.9196C330.362 80.4007 329.209 77.2132 329.209 73.4783C329.209 63.8253 335.672 56 348.102 56C355.593 56 362.01 60.4949 364.678 66.8738L356.056 73.9638C346.61 61.8261 337.128 70.5304 342.135 75.4203C353.571 89.0145 366 92.8986 366 104.065Z" fill="#818286"/>
<path fill-rule="evenodd" clip-rule="evenodd" d="M414 56H379V123H414V110.631H391V68.3692H414V56Z" fill="#818286"/>
<rect width="13" height="12" transform="matrix(-1 0 0 1 414 82)" fill="#818286"/>
<path fill-rule="evenodd" clip-rule="evenodd" d="M790 56H755V123H790V110.631H767V68.3692H790V56Z" fill="#FCB040"/>
<rect width="13" height="12" transform="matrix(-1 0 0 1 790 82)" fill="#FCB040"/>
<path d="M466.987 56H479.946V108H479.912C479.333 116.371 471.536 123 462.003 123C454.975 123 448.89 119.397 445.946 114.149L454.156 105.913C458.823 109.929 463.726 111.533 466 109.483C467.118 108.476 466.987 106.055 466.987 104.349V56Z" fill="#FCB040"/>
<path fill-rule="evenodd" clip-rule="evenodd" d="M573 56H561V101C561 113.15 570.85 123 583 123C595.15 123 605 113.15 605 101V56H593V101C593 106.523 588.523 111 583 111C577.477 111 573 106.523 573 101V56Z" fill="#FCB040"/>
<path fill-rule="evenodd" clip-rule="evenodd" d="M708 56H696V101C696 113.15 705.85 123 718 123C730.15 123 740 113.15 740 101V56H728V101C728 106.523 723.523 111 718 111C712.477 111 708 106.523 708 101V56Z" fill="#FCB040"/>
<path fill-rule="evenodd" clip-rule="evenodd" d="M489.11 122.5L514.047 56H527.172L552.11 122.5H539.61L533.835 107H507.384L501.61 122.5H489.11ZM511.482 96H529.737L520.61 71.5L511.482 96Z" fill="#FCB040"/>
<path d="M650 94H661.5L685 126H673.5L650 94Z" fill="#FCB040"/>
<path d="M154.523 40V10.9091H158.045V36.875H171.568V40H154.523ZM182.989 40.5114C181.606 40.5114 180.351 40.2509 179.224 39.7301C178.098 39.1998 177.203 38.4375 176.54 37.4432C175.877 36.4394 175.545 35.2273 175.545 33.8068C175.545 32.5568 175.792 31.5436 176.284 30.767C176.777 29.9811 177.435 29.3655 178.259 28.9205C179.082 28.4754 179.991 28.1439 180.986 27.9261C181.99 27.6989 182.998 27.5189 184.011 27.3864C185.337 27.2159 186.412 27.0881 187.236 27.0028C188.069 26.9081 188.675 26.7519 189.054 26.5341C189.442 26.3163 189.636 25.9375 189.636 25.3977V25.2841C189.636 23.8826 189.253 22.7936 188.486 22.017C187.728 21.2405 186.578 20.8523 185.034 20.8523C183.434 20.8523 182.179 21.2027 181.27 21.9034C180.361 22.6042 179.722 23.3523 179.352 24.1477L176.17 23.0114C176.739 21.6856 177.496 20.6534 178.443 19.9148C179.4 19.1667 180.441 18.6458 181.568 18.3523C182.705 18.0492 183.822 17.8977 184.92 17.8977C185.621 17.8977 186.426 17.983 187.335 18.1534C188.254 18.3144 189.139 18.6506 189.991 19.1619C190.853 19.6733 191.568 20.4451 192.136 21.4773C192.705 22.5095 192.989 23.892 192.989 25.625V40H189.636V37.0455H189.466C189.239 37.5189 188.86 38.0256 188.33 38.5653C187.799 39.1051 187.094 39.5644 186.213 39.9432C185.332 40.322 184.258 40.5114 182.989 40.5114ZM183.5 37.5C184.826 37.5 185.943 37.2396 186.852 36.7188C187.771 36.1979 188.462 35.5256 188.926 34.7017C189.4 33.8778 189.636 33.0114 189.636 32.1023V29.0341C189.494 29.2045 189.182 29.3608 188.699 29.5028C188.225 29.6354 187.676 29.7538 187.051 29.858C186.436 29.9527 185.834 30.0379 185.247 30.1136C184.67 30.1799 184.201 30.2367 183.841 30.2841C182.97 30.3977 182.155 30.5824 181.398 30.8381C180.65 31.0843 180.044 31.4583 179.58 31.9602C179.125 32.4527 178.898 33.125 178.898 33.9773C178.898 35.142 179.329 36.0227 180.19 36.6193C181.062 37.2064 182.165 37.5 183.5 37.5ZM220.073 18.1818V21.0227H208.312V18.1818H220.073ZM211.835 40V15.1705C211.835 13.9205 212.128 12.8788 212.715 12.0455C213.302 11.2121 214.065 10.5871 215.002 10.1705C215.94 9.75379 216.929 9.54545 217.971 9.54545C218.795 9.54545 219.467 9.61174 219.988 9.74432C220.509 9.87689 220.897 10 221.153 10.1136L220.187 13.0114C220.016 12.9545 219.78 12.8835 219.477 12.7983C219.183 12.7131 218.795 12.6705 218.312 12.6705C217.204 12.6705 216.404 12.9498 215.911 13.5085C215.428 14.0672 215.187 14.8864 215.187 15.9659V40H211.835ZM233.021 40.4545C230.918 40.4545 229.105 39.9905 227.58 39.0625C226.065 38.125 224.896 36.8182 224.072 35.142C223.257 33.4564 222.85 31.4962 222.85 29.2614C222.85 27.0265 223.257 25.0568 224.072 23.3523C224.896 21.6383 226.041 20.303 227.509 19.3466C228.987 18.3807 230.71 17.8977 232.68 17.8977C233.816 17.8977 234.938 18.0871 236.046 18.4659C237.154 18.8447 238.163 19.4602 239.072 20.3125C239.981 21.1553 240.705 22.2727 241.245 23.6648C241.785 25.0568 242.055 26.7708 242.055 28.8068V30.2273H225.237V27.3295H238.646C238.646 26.0985 238.399 25 237.907 24.0341C237.424 23.0682 236.733 22.3059 235.833 21.7472C234.943 21.1884 233.892 20.9091 232.68 20.9091C231.344 20.9091 230.189 21.2405 229.214 21.9034C228.248 22.5568 227.504 23.4091 226.984 24.4602C226.463 25.5114 226.202 26.6383 226.202 27.8409V29.7727C226.202 31.4205 226.487 32.8172 227.055 33.9631C227.632 35.0994 228.433 35.9659 229.455 36.5625C230.478 37.1496 231.666 37.4432 233.021 37.4432C233.901 37.4432 234.697 37.3201 235.407 37.0739C236.127 36.8182 236.747 36.4394 237.268 35.9375C237.789 35.4261 238.191 34.7917 238.475 34.0341L241.714 34.9432C241.373 36.0417 240.8 37.0076 239.995 37.8409C239.19 38.6648 238.196 39.3087 237.012 39.7727C235.828 40.2273 234.498 40.4545 233.021 40.4545ZM247.154 40V18.1818H250.393V21.4773H250.62C251.018 20.3977 251.737 19.5218 252.779 18.8494C253.821 18.1771 254.995 17.8409 256.302 17.8409C256.548 17.8409 256.856 17.8456 257.225 17.8551C257.594 17.8646 257.874 17.8788 258.063 17.8977V21.3068C257.95 21.2784 257.689 21.2358 257.282 21.179C256.884 21.1127 256.463 21.0795 256.018 21.0795C254.957 21.0795 254.01 21.3021 253.177 21.7472C252.353 22.1828 251.7 22.7888 251.217 23.5653C250.743 24.3324 250.506 25.2083 250.506 26.1932V40H247.154ZM262.037 40V18.1818H265.276V21.5909H265.56C266.014 20.4261 266.748 19.5218 267.761 18.8778C268.775 18.2244 269.991 17.8977 271.412 17.8977C272.851 17.8977 274.049 18.2244 275.006 18.8778C275.972 19.5218 276.724 20.4261 277.264 21.5909H277.491C278.05 20.464 278.888 19.5691 280.006 18.9062C281.123 18.2339 282.463 17.8977 284.026 17.8977C285.976 17.8977 287.572 18.5085 288.812 19.7301C290.053 20.9422 290.673 22.8314 290.673 25.3977V40H287.321V25.3977C287.321 23.7879 286.881 22.6373 286 21.946C285.119 21.2547 284.082 20.9091 282.889 20.9091C281.355 20.9091 280.167 21.3731 279.324 22.3011C278.481 23.2197 278.06 24.3845 278.06 25.7955V40H274.651V25.0568C274.651 23.8163 274.248 22.8172 273.443 22.0597C272.638 21.2926 271.601 20.9091 270.332 20.9091C269.461 20.9091 268.647 21.1411 267.889 21.6051C267.141 22.0691 266.535 22.7131 266.071 23.5369C265.616 24.3513 265.389 25.2936 265.389 26.3636V40H262.037ZM305.95 40.4545C303.848 40.4545 302.035 39.9905 300.51 39.0625C298.995 38.125 297.825 36.8182 297.001 35.142C296.187 33.4564 295.78 31.4962 295.78 29.2614C295.78 27.0265 296.187 25.0568 297.001 23.3523C297.825 21.6383 298.971 20.303 300.439 19.3466C301.916 18.3807 303.64 17.8977 305.609 17.8977C306.746 17.8977 307.868 18.0871 308.976 18.4659C310.084 18.8447 311.092 19.4602 312.001 20.3125C312.911 21.1553 313.635 22.2727 314.175 23.6648C314.714 25.0568 314.984 26.7708 314.984 28.8068V30.2273H298.166V27.3295H311.575C311.575 26.0985 311.329 25 310.837 24.0341C310.354 23.0682 309.662 22.3059 308.763 21.7472C307.873 21.1884 306.821 20.9091 305.609 20.9091C304.274 20.9091 303.119 21.2405 302.143 21.9034C301.178 22.5568 300.434 23.4091 299.913 24.4602C299.393 25.5114 299.132 26.6383 299.132 27.8409V29.7727C299.132 31.4205 299.416 32.8172 299.984 33.9631C300.562 35.0994 301.362 35.9659 302.385 36.5625C303.408 37.1496 304.596 37.4432 305.95 37.4432C306.831 37.4432 307.626 37.3201 308.337 37.0739C309.056 36.8182 309.677 36.4394 310.197 35.9375C310.718 35.4261 311.121 34.7917 311.405 34.0341L314.643 34.9432C314.303 36.0417 313.73 37.0076 312.925 37.8409C312.12 38.6648 311.125 39.3087 309.942 39.7727C308.758 40.2273 307.428 40.4545 305.95 40.4545ZM339.572 40.4545C337.754 40.4545 336.149 39.9953 334.757 39.0767C333.365 38.1487 332.276 36.8419 331.49 35.1562C330.704 33.4612 330.311 31.4583 330.311 29.1477C330.311 26.8561 330.704 24.8674 331.49 23.1818C332.276 21.4962 333.37 20.1941 334.771 19.2756C336.173 18.357 337.792 17.8977 339.629 17.8977C341.05 17.8977 342.172 18.1345 342.996 18.608C343.829 19.072 344.464 19.6023 344.899 20.1989C345.344 20.786 345.69 21.2689 345.936 21.6477H346.22V10.9091H349.572V40H346.334V36.6477H345.936C345.69 37.0455 345.339 37.5473 344.885 38.1534C344.43 38.75 343.782 39.285 342.939 39.7585C342.096 40.2225 340.974 40.4545 339.572 40.4545ZM340.027 37.4432C341.372 37.4432 342.508 37.0928 343.436 36.392C344.364 35.6818 345.07 34.7017 345.553 33.4517C346.036 32.1922 346.277 30.7386 346.277 29.0909C346.277 27.4621 346.04 26.0369 345.567 24.8153C345.093 23.5843 344.393 22.6278 343.464 21.946C342.536 21.2547 341.391 20.9091 340.027 20.9091C338.607 20.9091 337.423 21.2737 336.476 22.0028C335.538 22.7225 334.833 23.7027 334.359 24.9432C333.895 26.1742 333.663 27.5568 333.663 29.0909C333.663 30.6439 333.9 32.0549 334.374 33.3239C334.857 34.5833 335.567 35.5871 336.504 36.3352C337.451 37.0739 338.625 37.4432 340.027 37.4432ZM365.325 40.4545C363.223 40.4545 361.41 39.9905 359.885 39.0625C358.37 38.125 357.2 36.8182 356.376 35.142C355.562 33.4564 355.155 31.4962 355.155 29.2614C355.155 27.0265 355.562 25.0568 356.376 23.3523C357.2 21.6383 358.346 20.303 359.814 19.3466C361.291 18.3807 363.015 17.8977 364.984 17.8977C366.121 17.8977 367.243 18.0871 368.351 18.4659C369.459 18.8447 370.467 19.4602 371.376 20.3125C372.286 21.1553 373.01 22.2727 373.55 23.6648C374.089 25.0568 374.359 26.7708 374.359 28.8068V30.2273H357.541V27.3295H370.95C370.95 26.0985 370.704 25 370.212 24.0341C369.729 23.0682 369.037 22.3059 368.138 21.7472C367.248 21.1884 366.196 20.9091 364.984 20.9091C363.649 20.9091 362.494 21.2405 361.518 21.9034C360.553 22.5568 359.809 23.4091 359.288 24.4602C358.768 25.5114 358.507 26.6383 358.507 27.8409V29.7727C358.507 31.4205 358.791 32.8172 359.359 33.9631C359.937 35.0994 360.737 35.9659 361.76 36.5625C362.783 37.1496 363.971 37.4432 365.325 37.4432C366.206 37.4432 367.001 37.3201 367.712 37.0739C368.431 36.8182 369.052 36.4394 369.572 35.9375C370.093 35.4261 370.496 34.7917 370.78 34.0341L374.018 34.9432C373.678 36.0417 373.105 37.0076 372.3 37.8409C371.495 38.6648 370.5 39.3087 369.317 39.7727C368.133 40.2273 366.803 40.4545 365.325 40.4545ZM394.061 10.9091V40H390.709V10.9091H394.061ZM406.621 40.5114C405.239 40.5114 403.984 40.2509 402.857 39.7301C401.73 39.1998 400.835 38.4375 400.173 37.4432C399.51 36.4394 399.178 35.2273 399.178 33.8068C399.178 32.5568 399.424 31.5436 399.917 30.767C400.409 29.9811 401.067 29.3655 401.891 28.9205C402.715 28.4754 403.624 28.1439 404.619 27.9261C405.622 27.6989 406.631 27.5189 407.644 27.3864C408.97 27.2159 410.045 27.0881 410.869 27.0028C411.702 26.9081 412.308 26.7519 412.687 26.5341C413.075 26.3163 413.269 25.9375 413.269 25.3977V25.2841C413.269 23.8826 412.886 22.7936 412.119 22.017C411.361 21.2405 410.21 20.8523 408.667 20.8523C407.067 20.8523 405.812 21.2027 404.903 21.9034C403.994 22.6042 403.354 23.3523 402.985 24.1477L399.803 23.0114C400.371 21.6856 401.129 20.6534 402.076 19.9148C403.032 19.1667 404.074 18.6458 405.201 18.3523C406.337 18.0492 407.455 17.8977 408.553 17.8977C409.254 17.8977 410.059 17.983 410.968 18.1534C411.887 18.3144 412.772 18.6506 413.624 19.1619C414.486 19.6733 415.201 20.4451 415.769 21.4773C416.337 22.5095 416.621 23.892 416.621 25.625V40H413.269V37.0455H413.099C412.871 37.5189 412.493 38.0256 411.962 38.5653C411.432 39.1051 410.727 39.5644 409.846 39.9432C408.965 40.322 407.89 40.5114 406.621 40.5114ZM407.133 37.5C408.459 37.5 409.576 37.2396 410.485 36.7188C411.404 36.1979 412.095 35.5256 412.559 34.7017C413.032 33.8778 413.269 33.0114 413.269 32.1023V29.0341C413.127 29.2045 412.815 29.3608 412.332 29.5028C411.858 29.6354 411.309 29.7538 410.684 29.858C410.068 29.9527 409.467 30.0379 408.88 30.1136C408.302 30.1799 407.834 30.2367 407.474 30.2841C406.603 30.3977 405.788 30.5824 405.031 30.8381C404.282 31.0843 403.676 31.4583 403.212 31.9602C402.758 32.4527 402.531 33.125 402.531 33.9773C402.531 35.142 402.961 36.0227 403.823 36.6193C404.694 37.2064 405.798 37.5 407.133 37.5Z" fill="#8CC63E"/>
<path d="M446.649 143.184V144H443.217V136.02H444.045V143.184H446.649ZM453.308 138.156V144H452.48V142.896C451.928 143.672 451.192 144.06 450.272 144.06C449.72 144.06 449.212 143.928 448.748 143.664C448.284 143.392 447.916 143.024 447.644 142.56C447.38 142.096 447.248 141.592 447.248 141.048C447.248 140.496 447.38 139.988 447.644 139.524C447.916 139.06 448.284 138.696 448.748 138.432C449.212 138.16 449.72 138.024 450.272 138.024C450.84 138.024 451.304 138.144 451.664 138.384C452.032 138.616 452.304 138.868 452.48 139.14V138.156H453.308ZM450.272 143.244C450.672 143.244 451.04 143.148 451.376 142.956C451.712 142.756 451.976 142.488 452.168 142.152C452.368 141.816 452.468 141.448 452.468 141.048C452.468 140.648 452.368 140.28 452.168 139.944C451.976 139.6 451.712 139.332 451.376 139.14C451.04 138.94 450.672 138.84 450.272 138.84C449.872 138.84 449.5 138.94 449.156 139.14C448.82 139.332 448.552 139.6 448.352 139.944C448.16 140.28 448.064 140.648 448.064 141.048C448.064 141.448 448.16 141.816 448.352 142.152C448.552 142.488 448.82 142.756 449.156 142.956C449.5 143.148 449.872 143.244 450.272 143.244ZM465.271 142.908C465.095 143.18 464.823 143.436 464.455 143.676C464.087 143.908 463.619 144.024 463.051 144.024C462.507 144.024 462.003 143.888 461.539 143.616C461.075 143.344 460.707 142.976 460.435 142.512C460.163 142.048 460.027 141.544 460.027 141C460.027 140.456 460.163 139.952 460.435 139.488C460.707 139.024 461.075 138.656 461.539 138.384C462.003 138.112 462.507 137.976 463.051 137.976C463.499 137.976 463.911 138.076 464.287 138.276C464.663 138.468 464.991 138.76 465.271 139.152V138.156H466.087V146.556H465.271V142.908ZM463.051 138.804C462.651 138.804 462.283 138.904 461.947 139.104C461.611 139.296 461.343 139.56 461.143 139.896C460.951 140.232 460.855 140.6 460.855 141C460.855 141.4 460.951 141.768 461.143 142.104C461.343 142.44 461.611 142.708 461.947 142.908C462.283 143.108 462.651 143.208 463.051 143.208C463.451 143.208 463.819 143.108 464.155 142.908C464.491 142.708 464.759 142.44 464.959 142.104C465.159 141.768 465.259 141.4 465.259 141C465.259 140.6 465.159 140.232 464.959 139.896C464.759 139.56 464.491 139.296 464.155 139.104C463.819 138.904 463.451 138.804 463.051 138.804ZM469.672 144.048C469.24 144.048 468.84 143.944 468.472 143.736C468.112 143.52 467.824 143.232 467.608 142.872C467.392 142.504 467.284 142.104 467.284 141.672V138H468.112V141.672C468.112 141.952 468.18 142.212 468.316 142.452C468.46 142.692 468.652 142.884 468.892 143.028C469.132 143.164 469.392 143.232 469.672 143.232C469.952 143.232 470.212 143.164 470.452 143.028C470.692 142.884 470.88 142.692 471.016 142.452C471.16 142.212 471.232 141.952 471.232 141.672V138H472.048V143.94H471.232V143.364C471.032 143.588 470.796 143.76 470.524 143.88C470.26 143.992 469.976 144.048 469.672 144.048ZM479.194 138.156V144H478.366V142.896C477.814 143.672 477.078 144.06 476.158 144.06C475.606 144.06 475.098 143.928 474.634 143.664C474.17 143.392 473.802 143.024 473.53 142.56C473.266 142.096 473.134 141.592 473.134 141.048C473.134 140.496 473.266 139.988 473.53 139.524C473.802 139.06 474.17 138.696 474.634 138.432C475.098 138.16 475.606 138.024 476.158 138.024C476.726 138.024 477.19 138.144 477.55 138.384C477.918 138.616 478.19 138.868 478.366 139.14V138.156H479.194ZM476.158 143.244C476.558 143.244 476.926 143.148 477.262 142.956C477.598 142.756 477.862 142.488 478.054 142.152C478.254 141.816 478.354 141.448 478.354 141.048C478.354 140.648 478.254 140.28 478.054 139.944C477.862 139.6 477.598 139.332 477.262 139.14C476.926 138.94 476.558 138.84 476.158 138.84C475.758 138.84 475.386 138.94 475.042 139.14C474.706 139.332 474.438 139.6 474.238 139.944C474.046 140.28 473.95 140.648 473.95 141.048C473.95 141.448 474.046 141.816 474.238 142.152C474.438 142.488 474.706 142.756 475.042 142.956C475.386 143.148 475.758 143.244 476.158 143.244ZM481.327 136.02V144H480.511V136.02H481.327ZM483.187 136.332C483.331 136.332 483.455 136.384 483.559 136.488C483.663 136.592 483.715 136.716 483.715 136.86C483.715 137.012 483.663 137.14 483.559 137.244C483.455 137.348 483.331 137.4 483.187 137.4C483.035 137.4 482.907 137.348 482.803 137.244C482.699 137.14 482.647 137.012 482.647 136.86C482.647 136.716 482.699 136.592 482.803 136.488C482.907 136.384 483.035 136.332 483.187 136.332ZM483.595 138V144H482.767V138H483.595ZM487.74 138.816H486.744V144H485.916V138.816H484.92V138H485.916V136.02H486.744V138H487.74V138.816ZM489.326 141.444C489.422 141.956 489.674 142.384 490.082 142.728C490.49 143.064 490.958 143.232 491.486 143.232C491.878 143.232 492.238 143.14 492.566 142.956C492.894 142.772 493.158 142.52 493.358 142.2L494.066 142.608C493.794 143.048 493.43 143.4 492.974 143.664C492.518 143.928 492.022 144.06 491.486 144.06C490.942 144.06 490.438 143.924 489.974 143.652C489.51 143.38 489.142 143.012 488.87 142.548C488.598 142.084 488.462 141.58 488.462 141.036C488.462 140.484 488.598 139.98 488.87 139.524C489.142 139.06 489.51 138.692 489.974 138.42C490.438 138.148 490.942 138.012 491.486 138.012C492.03 138.012 492.534 138.148 492.998 138.42C493.462 138.692 493.83 139.06 494.102 139.524C494.374 139.98 494.51 140.484 494.51 141.036C494.51 141.132 494.502 141.268 494.486 141.444H489.326ZM491.486 138.828C491.134 138.828 490.79 138.912 490.454 139.08C490.118 139.24 489.846 139.464 489.638 139.752C489.43 140.032 489.326 140.336 489.326 140.664H493.646C493.646 140.336 493.542 140.032 493.334 139.752C493.126 139.464 492.854 139.24 492.518 139.08C492.19 138.912 491.846 138.828 491.486 138.828ZM492.458 135.768L491.918 137.412H491.174L491.642 135.768H492.458ZM497.162 142.716L496.334 145.224H495.59L496.298 142.716H497.162ZM504.817 136.02V144H504.001V136.02H504.817ZM512.076 138.156V144H511.248V142.896C510.696 143.672 509.96 144.06 509.04 144.06C508.488 144.06 507.98 143.928 507.516 143.664C507.052 143.392 506.684 143.024 506.412 142.56C506.148 142.096 506.016 141.592 506.016 141.048C506.016 140.496 506.148 139.988 506.412 139.524C506.684 139.06 507.052 138.696 507.516 138.432C507.98 138.16 508.488 138.024 509.04 138.024C509.608 138.024 510.072 138.144 510.432 138.384C510.8 138.616 511.072 138.868 511.248 139.14V138.156H512.076ZM509.04 143.244C509.44 143.244 509.808 143.148 510.144 142.956C510.48 142.756 510.744 142.488 510.936 142.152C511.136 141.816 511.236 141.448 511.236 141.048C511.236 140.648 511.136 140.28 510.936 139.944C510.744 139.6 510.48 139.332 510.144 139.14C509.808 138.94 509.44 138.84 509.04 138.84C508.64 138.84 508.268 138.94 507.924 139.14C507.588 139.332 507.32 139.6 507.12 139.944C506.928 140.28 506.832 140.648 506.832 141.048C506.832 141.448 506.928 141.816 507.12 142.152C507.32 142.488 507.588 142.756 507.924 142.956C508.268 143.148 508.64 143.244 509.04 143.244ZM518.915 146.556V138.156H519.731V139.152C520.011 138.76 520.339 138.468 520.715 138.276C521.091 138.076 521.503 137.976 521.951 137.976C522.495 137.976 522.999 138.112 523.463 138.384C523.927 138.656 524.295 139.024 524.567 139.488C524.839 139.952 524.975 140.456 524.975 141C524.975 141.544 524.839 142.048 524.567 142.512C524.295 142.976 523.927 143.344 523.463 143.616C522.999 143.888 522.495 144.024 521.951 144.024C521.383 144.024 520.915 143.908 520.547 143.676C520.179 143.436 519.907 143.18 519.731 142.908V146.556H518.915ZM521.951 138.804C521.551 138.804 521.183 138.904 520.847 139.104C520.511 139.296 520.243 139.56 520.043 139.896C519.843 140.232 519.743 140.6 519.743 141C519.743 141.4 519.843 141.768 520.043 142.104C520.243 142.44 520.511 142.708 520.847 142.908C521.183 143.108 521.551 143.208 521.951 143.208C522.351 143.208 522.719 143.108 523.055 142.908C523.391 142.708 523.655 142.44 523.847 142.104C524.047 141.768 524.147 141.4 524.147 141C524.147 140.6 524.047 140.232 523.847 139.896C523.655 139.56 523.391 139.296 523.055 139.104C522.719 138.904 522.351 138.804 521.951 138.804ZM532.112 138.156V144H531.284V142.896C530.732 143.672 529.996 144.06 529.076 144.06C528.524 144.06 528.016 143.928 527.552 143.664C527.088 143.392 526.72 143.024 526.448 142.56C526.184 142.096 526.052 141.592 526.052 141.048C526.052 140.496 526.184 139.988 526.448 139.524C526.72 139.06 527.088 138.696 527.552 138.432C528.016 138.16 528.524 138.024 529.076 138.024C529.644 138.024 530.108 138.144 530.468 138.384C530.836 138.616 531.108 138.868 531.284 139.14V138.156H532.112ZM529.076 143.244C529.476 143.244 529.844 143.148 530.18 142.956C530.516 142.756 530.78 142.488 530.972 142.152C531.172 141.816 531.272 141.448 531.272 141.048C531.272 140.648 531.172 140.28 530.972 139.944C530.78 139.6 530.516 139.332 530.18 139.14C529.844 138.94 529.476 138.84 529.076 138.84C528.676 138.84 528.304 138.94 527.96 139.14C527.624 139.332 527.356 139.6 527.156 139.944C526.964 140.28 526.868 140.648 526.868 141.048C526.868 141.448 526.964 141.816 527.156 142.152C527.356 142.488 527.624 142.756 527.96 142.956C528.304 143.148 528.676 143.244 529.076 143.244ZM533.914 142.392C533.978 142.616 534.078 142.792 534.214 142.92C534.438 143.128 534.766 143.232 535.198 143.232C535.574 143.232 535.878 143.144 536.11 142.968C536.342 142.792 536.458 142.564 536.458 142.284C536.458 142.02 536.406 141.824 536.302 141.696C536.198 141.568 536.062 141.488 535.894 141.456C535.734 141.416 535.51 141.392 535.222 141.384C534.806 141.36 534.466 141.316 534.202 141.252C533.938 141.18 533.698 141.024 533.482 140.784C533.218 140.456 533.086 140.096 533.086 139.704C533.086 139.608 533.09 139.536 533.098 139.488C533.162 138.984 533.374 138.6 533.734 138.336C534.094 138.064 534.578 137.928 535.186 137.928H535.198C535.646 137.928 536.01 138.012 536.29 138.18C536.57 138.348 536.786 138.552 536.938 138.792C537.098 139.056 537.198 139.332 537.238 139.62H536.398C536.382 139.508 536.33 139.376 536.242 139.224C536.042 138.92 535.694 138.76 535.198 138.744C534.694 138.744 534.362 138.828 534.202 138.996C534.042 139.164 533.946 139.36 533.914 139.584C533.906 139.616 533.902 139.66 533.902 139.716C533.902 139.908 533.97 140.08 534.106 140.232C534.218 140.368 534.362 140.46 534.538 140.508C534.714 140.548 534.966 140.58 535.294 140.604C535.558 140.62 535.782 140.644 535.966 140.676C536.158 140.708 536.338 140.768 536.506 140.856C537.026 141.136 537.286 141.612 537.286 142.284C537.286 142.516 537.238 142.74 537.142 142.956C537.054 143.164 536.926 143.348 536.758 143.508C536.382 143.876 535.866 144.06 535.21 144.06C534.57 144.06 534.05 143.88 533.65 143.52C533.338 143.216 533.146 142.84 533.074 142.392H533.914ZM538.968 142.392C539.032 142.616 539.132 142.792 539.268 142.92C539.492 143.128 539.82 143.232 540.252 143.232C540.628 143.232 540.932 143.144 541.164 142.968C541.396 142.792 541.512 142.564 541.512 142.284C541.512 142.02 541.46 141.824 541.356 141.696C541.252 141.568 541.116 141.488 540.948 141.456C540.788 141.416 540.564 141.392 540.276 141.384C539.86 141.36 539.52 141.316 539.256 141.252C538.992 141.18 538.752 141.024 538.536 140.784C538.272 140.456 538.14 140.096 538.14 139.704C538.14 139.608 538.144 139.536 538.152 139.488C538.216 138.984 538.428 138.6 538.788 138.336C539.148 138.064 539.632 137.928 540.24 137.928H540.252C540.7 137.928 541.064 138.012 541.344 138.18C541.624 138.348 541.84 138.552 541.992 138.792C542.152 139.056 542.252 139.332 542.292 139.62H541.452C541.436 139.508 541.384 139.376 541.296 139.224C541.096 138.92 540.748 138.76 540.252 138.744C539.748 138.744 539.416 138.828 539.256 138.996C539.096 139.164 539 139.36 538.968 139.584C538.96 139.616 538.956 139.66 538.956 139.716C538.956 139.908 539.024 140.08 539.16 140.232C539.272 140.368 539.416 140.46 539.592 140.508C539.768 140.548 540.02 140.58 540.348 140.604C540.612 140.62 540.836 140.644 541.02 140.676C541.212 140.708 541.392 140.768 541.56 140.856C542.08 141.136 542.34 141.612 542.34 142.284C542.34 142.516 542.292 142.74 542.196 142.956C542.108 143.164 541.98 143.348 541.812 143.508C541.436 143.876 540.92 144.06 540.264 144.06C539.624 144.06 539.104 143.88 538.704 143.52C538.392 143.216 538.2 142.84 538.128 142.392H538.968ZM544.076 136.332C544.22 136.332 544.344 136.384 544.448 136.488C544.552 136.592 544.604 136.716 544.604 136.86C544.604 137.012 544.552 137.14 544.448 137.244C544.344 137.348 544.22 137.4 544.076 137.4C543.924 137.4 543.796 137.348 543.692 137.244C543.588 137.14 543.536 137.012 543.536 136.86C543.536 136.716 543.588 136.592 543.692 136.488C543.796 136.384 543.924 136.332 544.076 136.332ZM544.484 138V144H543.656V138H544.484ZM548.482 144.06C547.938 144.06 547.43 143.924 546.958 143.652C546.494 143.38 546.126 143.012 545.854 142.548C545.582 142.076 545.446 141.568 545.446 141.024C545.446 140.472 545.582 139.964 545.854 139.5C546.126 139.028 546.494 138.656 546.958 138.384C547.43 138.104 547.938 137.964 548.482 137.964C549.034 137.964 549.542 138.104 550.006 138.384C550.478 138.656 550.85 139.028 551.122 139.5C551.402 139.964 551.542 140.472 551.542 141.024C551.542 141.568 551.402 142.076 551.122 142.548C550.85 143.012 550.478 143.38 550.006 143.652C549.542 143.924 549.034 144.06 548.482 144.06ZM548.482 143.256C548.89 143.256 549.262 143.156 549.598 142.956C549.942 142.756 550.214 142.484 550.414 142.14C550.614 141.796 550.714 141.424 550.714 141.024C550.714 140.616 550.614 140.24 550.414 139.896C550.214 139.552 549.942 139.28 549.598 139.08C549.262 138.88 548.89 138.78 548.482 138.78C548.082 138.78 547.71 138.88 547.366 139.08C547.03 139.28 546.762 139.552 546.562 139.896C546.362 140.24 546.262 140.616 546.262 141.024C546.262 141.424 546.362 141.796 546.562 142.14C546.762 142.484 547.03 142.756 547.366 142.956C547.71 143.156 548.082 143.256 548.482 143.256ZM555.117 138C555.549 138 555.945 138.108 556.305 138.324C556.673 138.532 556.965 138.82 557.181 139.188C557.397 139.548 557.505 139.944 557.505 140.376V144H556.677V140.376C556.677 140.096 556.605 139.84 556.461 139.608C556.325 139.368 556.137 139.18 555.897 139.044C555.657 138.9 555.397 138.828 555.117 138.828C554.837 138.828 554.577 138.9 554.337 139.044C554.097 139.18 553.905 139.368 553.761 139.608C553.625 139.84 553.557 140.096 553.557 140.376V144H552.741V138.156H553.557V138.684C553.757 138.46 553.989 138.292 554.253 138.18C554.525 138.06 554.813 138 555.117 138ZM564.975 141.444C565.071 141.956 565.323 142.384 565.731 142.728C566.139 143.064 566.607 143.232 567.135 143.232C567.527 143.232 567.887 143.14 568.215 142.956C568.543 142.772 568.807 142.52 569.007 142.2L569.715 142.608C569.443 143.048 569.079 143.4 568.623 143.664C568.167 143.928 567.671 144.06 567.135 144.06C566.591 144.06 566.087 143.924 565.623 143.652C565.159 143.38 564.791 143.012 564.519 142.548C564.247 142.084 564.111 141.58 564.111 141.036C564.111 140.484 564.247 139.98 564.519 139.524C564.791 139.06 565.159 138.692 565.623 138.42C566.087 138.148 566.591 138.012 567.135 138.012C567.679 138.012 568.183 138.148 568.647 138.42C569.111 138.692 569.479 139.06 569.751 139.524C570.023 139.98 570.159 140.484 570.159 141.036C570.159 141.132 570.151 141.268 570.135 141.444H564.975ZM567.135 138.828C566.783 138.828 566.439 138.912 566.103 139.08C565.767 139.24 565.495 139.464 565.287 139.752C565.079 140.032 564.975 140.336 564.975 140.664H569.295C569.295 140.336 569.191 140.032 568.983 139.752C568.775 139.464 568.503 139.24 568.167 139.08C567.839 138.912 567.495 138.828 567.135 138.828ZM573.824 138.816H572.828V144H572V138.816H571.004V138H572V136.02H572.828V138H573.824V138.816ZM581.368 136.02V144H580.552V136.02H581.368ZM583.431 141.444C583.527 141.956 583.779 142.384 584.187 142.728C584.595 143.064 585.063 143.232 585.591 143.232C585.983 143.232 586.343 143.14 586.671 142.956C586.999 142.772 587.263 142.52 587.463 142.2L588.171 142.608C587.899 143.048 587.535 143.4 587.079 143.664C586.623 143.928 586.127 144.06 585.591 144.06C585.047 144.06 584.543 143.924 584.079 143.652C583.615 143.38 583.247 143.012 582.975 142.548C582.703 142.084 582.567 141.58 582.567 141.036C582.567 140.484 582.703 139.98 582.975 139.524C583.247 139.06 583.615 138.692 584.079 138.42C584.543 138.148 585.047 138.012 585.591 138.012C586.135 138.012 586.639 138.148 587.103 138.42C587.567 138.692 587.935 139.06 588.207 139.524C588.479 139.98 588.615 140.484 588.615 141.036C588.615 141.132 588.607 141.268 588.591 141.444H583.431ZM585.591 138.828C585.239 138.828 584.895 138.912 584.559 139.08C584.223 139.24 583.951 139.464 583.743 139.752C583.535 140.032 583.431 140.336 583.431 140.664H587.751C587.751 140.336 587.647 140.032 587.439 139.752C587.231 139.464 586.959 139.24 586.623 139.08C586.295 138.912 585.951 138.828 585.591 138.828ZM597.714 138C598.146 138 598.542 138.108 598.902 138.324C599.27 138.532 599.562 138.82 599.778 139.188C599.994 139.548 600.102 139.944 600.102 140.376V144H599.274V140.376C599.274 140.096 599.202 139.84 599.058 139.608C598.922 139.368 598.734 139.18 598.494 139.044C598.254 138.9 597.994 138.828 597.714 138.828C597.434 138.828 597.174 138.9 596.934 139.044C596.694 139.18 596.502 139.368 596.358 139.608C596.222 139.84 596.154 140.096 596.154 140.376V144H595.338V138.156H596.154V138.684C596.354 138.46 596.586 138.292 596.85 138.18C597.122 138.06 597.41 138 597.714 138ZM607.245 138.156V144H606.417V142.896C605.865 143.672 605.129 144.06 604.209 144.06C603.657 144.06 603.149 143.928 602.685 143.664C602.221 143.392 601.853 143.024 601.581 142.56C601.317 142.096 601.185 141.592 601.185 141.048C601.185 140.496 601.317 139.988 601.581 139.524C601.853 139.06 602.221 138.696 602.685 138.432C603.149 138.16 603.657 138.024 604.209 138.024C604.777 138.024 605.241 138.144 605.601 138.384C605.969 138.616 606.241 138.868 606.417 139.14V138.156H607.245ZM604.209 143.244C604.609 143.244 604.977 143.148 605.313 142.956C605.649 142.756 605.913 142.488 606.105 142.152C606.305 141.816 606.405 141.448 606.405 141.048C606.405 140.648 606.305 140.28 606.105 139.944C605.913 139.6 605.649 139.332 605.313 139.14C604.977 138.94 604.609 138.84 604.209 138.84C603.809 138.84 603.437 138.94 603.093 139.14C602.757 139.332 602.489 139.6 602.289 139.944C602.097 140.28 602.001 140.648 602.001 141.048C602.001 141.448 602.097 141.816 602.289 142.152C602.489 142.488 602.757 142.756 603.093 142.956C603.437 143.148 603.809 143.244 604.209 143.244ZM611.262 138.816H610.266V144H609.438V138.816H608.442V138H609.438V136.02H610.266V138H611.262V138.816ZM614.735 144.048C614.303 144.048 613.903 143.944 613.535 143.736C613.175 143.52 612.887 143.232 612.671 142.872C612.455 142.504 612.347 142.104 612.347 141.672V138H613.175V141.672C613.175 141.952 613.243 142.212 613.379 142.452C613.523 142.692 613.715 142.884 613.955 143.028C614.195 143.164 614.455 143.232 614.735 143.232C615.015 143.232 615.275 143.164 615.515 143.028C615.755 142.884 615.943 142.692 616.079 142.452C616.223 142.212 616.295 141.952 616.295 141.672V138H617.111V143.94H616.295V143.364C616.095 143.588 615.859 143.76 615.587 143.88C615.323 143.992 615.039 144.048 614.735 144.048ZM621.183 138.888C620.999 138.808 620.815 138.768 620.631 138.768C620.255 138.768 619.931 138.904 619.659 139.176C619.387 139.448 619.251 139.772 619.251 140.148V144H618.435V140.148C618.435 139.716 618.547 139.324 618.771 138.972C619.003 138.612 619.303 138.344 619.671 138.168L619.695 138.156C619.991 138.02 620.303 137.952 620.631 137.952C621.143 137.952 621.599 138.108 621.999 138.42L621.183 138.888ZM622.861 141.444C622.957 141.956 623.209 142.384 623.617 142.728C624.025 143.064 624.493 143.232 625.021 143.232C625.413 143.232 625.773 143.14 626.101 142.956C626.429 142.772 626.693 142.52 626.893 142.2L627.601 142.608C627.329 143.048 626.965 143.4 626.509 143.664C626.053 143.928 625.557 144.06 625.021 144.06C624.477 144.06 623.973 143.924 623.509 143.652C623.045 143.38 622.677 143.012 622.405 142.548C622.133 142.084 621.997 141.58 621.997 141.036C621.997 140.484 622.133 139.98 622.405 139.524C622.677 139.06 623.045 138.692 623.509 138.42C623.973 138.148 624.477 138.012 625.021 138.012C625.565 138.012 626.069 138.148 626.533 138.42C626.997 138.692 627.365 139.06 627.637 139.524C627.909 139.98 628.045 140.484 628.045 141.036C628.045 141.132 628.037 141.268 628.021 141.444H622.861ZM625.021 138.828C624.669 138.828 624.325 138.912 623.989 139.08C623.653 139.24 623.381 139.464 623.173 139.752C622.965 140.032 622.861 140.336 622.861 140.664H627.181C627.181 140.336 627.077 140.032 626.869 139.752C626.661 139.464 626.389 139.24 626.053 139.08C625.725 138.912 625.381 138.828 625.021 138.828ZM630.061 136.02V144H629.245V136.02H630.061ZM642.867 144H642.063V142.884C641.479 143.668 640.731 144.06 639.819 144.06C639.267 144.06 638.759 143.924 638.295 143.652C637.831 143.38 637.463 143.012 637.191 142.548C636.919 142.076 636.783 141.568 636.783 141.024C636.783 140.48 636.919 139.976 637.191 139.512C637.463 139.04 637.831 138.668 638.295 138.396C638.759 138.124 639.267 137.988 639.819 137.988C640.763 137.988 641.511 138.36 642.063 139.104V136.032H642.867V144ZM642.039 141.024C642.039 140.624 641.939 140.256 641.739 139.92C641.539 139.584 641.267 139.316 640.923 139.116C640.587 138.916 640.219 138.816 639.819 138.816C639.419 138.816 639.051 138.916 638.715 139.116C638.379 139.316 638.111 139.584 637.911 139.92C637.711 140.256 637.611 140.624 637.611 141.024C637.611 141.424 637.711 141.796 637.911 142.14C638.111 142.476 638.379 142.744 638.715 142.944C639.051 143.144 639.419 143.244 639.819 143.244C640.219 143.244 640.587 143.144 640.923 142.944C641.267 142.744 641.539 142.476 641.739 142.14C641.939 141.796 642.039 141.424 642.039 141.024ZM645.635 135.744L644.807 138.252H644.063L644.771 135.744H645.635ZM652.294 138.156V144H651.466V142.896C650.914 143.672 650.178 144.06 649.258 144.06C648.706 144.06 648.198 143.928 647.734 143.664C647.27 143.392 646.902 143.024 646.63 142.56C646.366 142.096 646.234 141.592 646.234 141.048C646.234 140.496 646.366 139.988 646.63 139.524C646.902 139.06 647.27 138.696 647.734 138.432C648.198 138.16 648.706 138.024 649.258 138.024C649.826 138.024 650.29 138.144 650.65 138.384C651.018 138.616 651.29 138.868 651.466 139.14V138.156H652.294ZM649.258 143.244C649.658 143.244 650.026 143.148 650.362 142.956C650.698 142.756 650.962 142.488 651.154 142.152C651.354 141.816 651.454 141.448 651.454 141.048C651.454 140.648 651.354 140.28 651.154 139.944C650.962 139.6 650.698 139.332 650.362 139.14C650.026 138.94 649.658 138.84 649.258 138.84C648.858 138.84 648.486 138.94 648.142 139.14C647.806 139.332 647.538 139.6 647.338 139.944C647.146 140.28 647.05 140.648 647.05 141.048C647.05 141.448 647.146 141.816 647.338 142.152C647.538 142.488 647.806 142.756 648.142 142.956C648.486 143.148 648.858 143.244 649.258 143.244ZM655.987 138C656.419 138 656.815 138.108 657.175 138.324C657.543 138.532 657.835 138.82 658.051 139.188C658.267 139.548 658.375 139.944 658.375 140.376V144H657.547V140.376C657.547 140.096 657.475 139.84 657.331 139.608C657.195 139.368 657.007 139.18 656.767 139.044C656.527 138.9 656.267 138.828 655.987 138.828C655.707 138.828 655.447 138.9 655.207 139.044C654.967 139.18 654.775 139.368 654.631 139.608C654.495 139.84 654.427 140.096 654.427 140.376V144H653.611V138.156H654.427V138.684C654.627 138.46 654.859 138.292 655.123 138.18C655.395 138.06 655.683 138 655.987 138ZM662.278 138.816H661.282V144H660.454V138.816H659.458V138H660.454V136.02H661.282V138H662.278V138.816ZM669.06 138.156V144H668.232V142.896C667.68 143.672 666.944 144.06 666.024 144.06C665.472 144.06 664.964 143.928 664.5 143.664C664.036 143.392 663.668 143.024 663.396 142.56C663.132 142.096 663 141.592 663 141.048C663 140.496 663.132 139.988 663.396 139.524C663.668 139.06 664.036 138.696 664.5 138.432C664.964 138.16 665.472 138.024 666.024 138.024C666.592 138.024 667.056 138.144 667.416 138.384C667.784 138.616 668.056 138.868 668.232 139.14V138.156H669.06ZM666.024 143.244C666.424 143.244 666.792 143.148 667.128 142.956C667.464 142.756 667.728 142.488 667.92 142.152C668.12 141.816 668.22 141.448 668.22 141.048C668.22 140.648 668.12 140.28 667.92 139.944C667.728 139.6 667.464 139.332 667.128 139.14C666.792 138.94 666.424 138.84 666.024 138.84C665.624 138.84 665.252 138.94 664.908 139.14C664.572 139.332 664.304 139.6 664.104 139.944C663.912 140.28 663.816 140.648 663.816 141.048C663.816 141.448 663.912 141.816 664.104 142.152C664.304 142.488 664.572 142.756 664.908 142.956C665.252 143.148 665.624 143.244 666.024 143.244ZM672.753 138C673.185 138 673.581 138.108 673.941 138.324C674.309 138.532 674.601 138.82 674.817 139.188C675.033 139.548 675.141 139.944 675.141 140.376V144H674.313V140.376C674.313 140.096 674.241 139.84 674.097 139.608C673.961 139.368 673.773 139.18 673.533 139.044C673.293 138.9 673.033 138.828 672.753 138.828C672.473 138.828 672.213 138.9 671.973 139.044C671.733 139.18 671.541 139.368 671.397 139.608C671.261 139.84 671.193 140.096 671.193 140.376V144H670.377V138.156H671.193V138.684C671.393 138.46 671.625 138.292 671.889 138.18C672.161 138.06 672.449 138 672.753 138ZM687.831 144H687.027V142.884C686.443 143.668 685.695 144.06 684.783 144.06C684.231 144.06 683.723 143.924 683.259 143.652C682.795 143.38 682.427 143.012 682.155 142.548C681.883 142.076 681.747 141.568 681.747 141.024C681.747 140.48 681.883 139.976 682.155 139.512C682.427 139.04 682.795 138.668 683.259 138.396C683.723 138.124 684.231 137.988 684.783 137.988C685.727 137.988 686.475 138.36 687.027 139.104V136.032H687.831V144ZM687.003 141.024C687.003 140.624 686.903 140.256 686.703 139.92C686.503 139.584 686.231 139.316 685.887 139.116C685.551 138.916 685.183 138.816 684.783 138.816C684.383 138.816 684.015 138.916 683.679 139.116C683.343 139.316 683.075 139.584 682.875 139.92C682.675 140.256 682.575 140.624 682.575 141.024C682.575 141.424 682.675 141.796 682.875 142.14C683.075 142.476 683.343 142.744 683.679 142.944C684.015 143.144 684.383 143.244 684.783 143.244C685.183 143.244 685.551 143.144 685.887 142.944C686.231 142.744 686.503 142.476 686.703 142.14C686.903 141.796 687.003 141.424 687.003 141.024ZM695.087 138.156V144H694.259V142.896C693.707 143.672 692.971 144.06 692.051 144.06C691.499 144.06 690.991 143.928 690.527 143.664C690.063 143.392 689.695 143.024 689.423 142.56C689.159 142.096 689.027 141.592 689.027 141.048C689.027 140.496 689.159 139.988 689.423 139.524C689.695 139.06 690.063 138.696 690.527 138.432C690.991 138.16 691.499 138.024 692.051 138.024C692.619 138.024 693.083 138.144 693.443 138.384C693.811 138.616 694.083 138.868 694.259 139.14V138.156H695.087ZM692.051 143.244C692.451 143.244 692.819 143.148 693.155 142.956C693.491 142.756 693.755 142.488 693.947 142.152C694.147 141.816 694.247 141.448 694.247 141.048C694.247 140.648 694.147 140.28 693.947 139.944C693.755 139.6 693.491 139.332 693.155 139.14C692.819 138.94 692.451 138.84 692.051 138.84C691.651 138.84 691.279 138.94 690.935 139.14C690.599 139.332 690.331 139.6 690.131 139.944C689.939 140.28 689.843 140.648 689.843 141.048C689.843 141.448 689.939 141.816 690.131 142.152C690.331 142.488 690.599 142.756 690.935 142.956C691.279 143.148 691.651 143.244 692.051 143.244ZM698.78 138C699.212 138 699.608 138.108 699.968 138.324C700.336 138.532 700.628 138.82 700.844 139.188C701.06 139.548 701.168 139.944 701.168 140.376V144H700.34V140.376C700.34 140.096 700.268 139.84 700.124 139.608C699.988 139.368 699.8 139.18 699.56 139.044C699.32 138.9 699.06 138.828 698.78 138.828C698.5 138.828 698.24 138.9 698 139.044C697.76 139.18 697.568 139.368 697.424 139.608C697.288 139.84 697.22 140.096 697.22 140.376V144H696.404V138.156H697.22V138.684C697.42 138.46 697.652 138.292 697.916 138.18C698.188 138.06 698.476 138 698.78 138ZM703.091 142.392C703.155 142.616 703.255 142.792 703.391 142.92C703.615 143.128 703.943 143.232 704.375 143.232C704.751 143.232 705.055 143.144 705.287 142.968C705.519 142.792 705.635 142.564 705.635 142.284C705.635 142.02 705.583 141.824 705.479 141.696C705.375 141.568 705.239 141.488 705.071 141.456C704.911 141.416 704.687 141.392 704.399 141.384C703.983 141.36 703.643 141.316 703.379 141.252C703.115 141.18 702.875 141.024 702.659 140.784C702.395 140.456 702.263 140.096 702.263 139.704C702.263 139.608 702.267 139.536 702.275 139.488C702.339 138.984 702.551 138.6 702.911 138.336C703.271 138.064 703.755 137.928 704.363 137.928H704.375C704.823 137.928 705.187 138.012 705.467 138.18C705.747 138.348 705.963 138.552 706.115 138.792C706.275 139.056 706.375 139.332 706.415 139.62H705.575C705.559 139.508 705.507 139.376 705.419 139.224C705.219 138.92 704.871 138.76 704.375 138.744C703.871 138.744 703.539 138.828 703.379 138.996C703.219 139.164 703.123 139.36 703.091 139.584C703.083 139.616 703.079 139.66 703.079 139.716C703.079 139.908 703.147 140.08 703.283 140.232C703.395 140.368 703.539 140.46 703.715 140.508C703.891 140.548 704.143 140.58 704.471 140.604C704.735 140.62 704.959 140.644 705.143 140.676C705.335 140.708 705.515 140.768 705.683 140.856C706.203 141.136 706.463 141.612 706.463 142.284C706.463 142.516 706.415 142.74 706.319 142.956C706.231 143.164 706.103 143.348 705.935 143.508C705.559 143.876 705.043 144.06 704.387 144.06C703.747 144.06 703.227 143.88 702.827 143.52C702.515 143.216 702.323 142.84 702.251 142.392H703.091ZM718.666 138.024L716.302 144H715.426L713.062 138.024H713.938L715.87 142.86L717.79 138.024H718.666ZM722.065 144.06C721.521 144.06 721.013 143.924 720.541 143.652C720.077 143.38 719.709 143.012 719.437 142.548C719.165 142.076 719.029 141.568 719.029 141.024C719.029 140.472 719.165 139.964 719.437 139.5C719.709 139.028 720.077 138.656 720.541 138.384C721.013 138.104 721.521 137.964 722.065 137.964C722.617 137.964 723.125 138.104 723.589 138.384C724.061 138.656 724.433 139.028 724.705 139.5C724.985 139.964 725.125 140.472 725.125 141.024C725.125 141.568 724.985 142.076 724.705 142.548C724.433 143.012 724.061 143.38 723.589 143.652C723.125 143.924 722.617 144.06 722.065 144.06ZM722.065 143.256C722.473 143.256 722.845 143.156 723.181 142.956C723.525 142.756 723.797 142.484 723.997 142.14C724.197 141.796 724.297 141.424 724.297 141.024C724.297 140.616 724.197 140.24 723.997 139.896C723.797 139.552 723.525 139.28 723.181 139.08C722.845 138.88 722.473 138.78 722.065 138.78C721.665 138.78 721.293 138.88 720.949 139.08C720.613 139.28 720.345 139.552 720.145 139.896C719.945 140.24 719.845 140.616 719.845 141.024C719.845 141.424 719.945 141.796 720.145 142.14C720.345 142.484 720.613 142.756 720.949 142.956C721.293 143.156 721.665 143.256 722.065 143.256ZM726.81 142.392C726.874 142.616 726.974 142.792 727.11 142.92C727.334 143.128 727.662 143.232 728.094 143.232C728.47 143.232 728.774 143.144 729.006 142.968C729.238 142.792 729.354 142.564 729.354 142.284C729.354 142.02 729.302 141.824 729.198 141.696C729.094 141.568 728.958 141.488 728.79 141.456C728.63 141.416 728.406 141.392 728.118 141.384C727.702 141.36 727.362 141.316 727.098 141.252C726.834 141.18 726.594 141.024 726.378 140.784C726.114 140.456 725.982 140.096 725.982 139.704C725.982 139.608 725.986 139.536 725.994 139.488C726.058 138.984 726.27 138.6 726.63 138.336C726.99 138.064 727.474 137.928 728.082 137.928H728.094C728.542 137.928 728.906 138.012 729.186 138.18C729.466 138.348 729.682 138.552 729.834 138.792C729.994 139.056 730.094 139.332 730.134 139.62H729.294C729.278 139.508 729.226 139.376 729.138 139.224C728.938 138.92 728.59 138.76 728.094 138.744C727.59 138.744 727.258 138.828 727.098 138.996C726.938 139.164 726.842 139.36 726.81 139.584C726.802 139.616 726.798 139.66 726.798 139.716C726.798 139.908 726.866 140.08 727.002 140.232C727.114 140.368 727.258 140.46 727.434 140.508C727.61 140.548 727.862 140.58 728.19 140.604C728.454 140.62 728.678 140.644 728.862 140.676C729.054 140.708 729.234 140.768 729.402 140.856C729.922 141.136 730.182 141.612 730.182 142.284C730.182 142.516 730.134 142.74 730.038 142.956C729.95 143.164 729.822 143.348 729.654 143.508C729.278 143.876 728.762 144.06 728.106 144.06C727.466 144.06 726.946 143.88 726.546 143.52C726.234 143.216 726.042 142.84 725.97 142.392H726.81ZM742.84 138.156V144H742.012V142.896C741.46 143.672 740.724 144.06 739.804 144.06C739.252 144.06 738.744 143.928 738.28 143.664C737.816 143.392 737.448 143.024 737.176 142.56C736.912 142.096 736.78 141.592 736.78 141.048C736.78 140.496 736.912 139.988 737.176 139.524C737.448 139.06 737.816 138.696 738.28 138.432C738.744 138.16 739.252 138.024 739.804 138.024C740.372 138.024 740.836 138.144 741.196 138.384C741.564 138.616 741.836 138.868 742.012 139.14V138.156H742.84ZM739.804 143.244C740.204 143.244 740.572 143.148 740.908 142.956C741.244 142.756 741.508 142.488 741.7 142.152C741.9 141.816 742 141.448 742 141.048C742 140.648 741.9 140.28 741.7 139.944C741.508 139.6 741.244 139.332 740.908 139.14C740.572 138.94 740.204 138.84 739.804 138.84C739.404 138.84 739.032 138.94 738.688 139.14C738.352 139.332 738.084 139.6 737.884 139.944C737.692 140.28 737.596 140.648 737.596 141.048C737.596 141.448 737.692 141.816 737.884 142.152C738.084 142.488 738.352 142.756 738.688 142.956C739.032 143.148 739.404 143.244 739.804 143.244ZM744.642 142.392C744.706 142.616 744.806 142.792 744.942 142.92C745.166 143.128 745.494 143.232 745.926 143.232C746.302 143.232 746.606 143.144 746.838 142.968C747.07 142.792 747.186 142.564 747.186 142.284C747.186 142.02 747.134 141.824 747.03 141.696C746.926 141.568 746.79 141.488 746.622 141.456C746.462 141.416 746.238 141.392 745.95 141.384C745.534 141.36 745.194 141.316 744.93 141.252C744.666 141.18 744.426 141.024 744.21 140.784C743.946 140.456 743.814 140.096 743.814 139.704C743.814 139.608 743.818 139.536 743.826 139.488C743.89 138.984 744.102 138.6 744.462 138.336C744.822 138.064 745.306 137.928 745.914 137.928H745.926C746.374 137.928 746.738 138.012 747.018 138.18C747.298 138.348 747.514 138.552 747.666 138.792C747.826 139.056 747.926 139.332 747.966 139.62H747.126C747.11 139.508 747.058 139.376 746.97 139.224C746.77 138.92 746.422 138.76 745.926 138.744C745.422 138.744 745.09 138.828 744.93 138.996C744.77 139.164 744.674 139.36 744.642 139.584C744.634 139.616 744.63 139.66 744.63 139.716C744.63 139.908 744.698 140.08 744.834 140.232C744.946 140.368 745.09 140.46 745.266 140.508C745.442 140.548 745.694 140.58 746.022 140.604C746.286 140.62 746.51 140.644 746.694 140.676C746.886 140.708 747.066 140.768 747.234 140.856C747.754 141.136 748.014 141.612 748.014 142.284C748.014 142.516 747.966 142.74 747.87 142.956C747.782 143.164 747.654 143.348 747.486 143.508C747.11 143.876 746.594 144.06 745.938 144.06C745.298 144.06 744.778 143.88 744.378 143.52C744.066 143.216 743.874 142.84 743.802 142.392H744.642ZM749.696 142.392C749.76 142.616 749.86 142.792 749.996 142.92C750.22 143.128 750.548 143.232 750.98 143.232C751.356 143.232 751.66 143.144 751.892 142.968C752.124 142.792 752.24 142.564 752.24 142.284C752.24 142.02 752.188 141.824 752.084 141.696C751.98 141.568 751.844 141.488 751.676 141.456C751.516 141.416 751.292 141.392 751.004 141.384C750.588 141.36 750.248 141.316 749.984 141.252C749.72 141.18 749.48 141.024 749.264 140.784C749 140.456 748.868 140.096 748.868 139.704C748.868 139.608 748.872 139.536 748.88 139.488C748.944 138.984 749.156 138.6 749.516 138.336C749.876 138.064 750.36 137.928 750.968 137.928H750.98C751.428 137.928 751.792 138.012 752.072 138.18C752.352 138.348 752.568 138.552 752.72 138.792C752.88 139.056 752.98 139.332 753.02 139.62H752.18C752.164 139.508 752.112 139.376 752.024 139.224C751.824 138.92 751.476 138.76 750.98 138.744C750.476 138.744 750.144 138.828 749.984 138.996C749.824 139.164 749.728 139.36 749.696 139.584C749.688 139.616 749.684 139.66 749.684 139.716C749.684 139.908 749.752 140.08 749.888 140.232C750 140.368 750.144 140.46 750.32 140.508C750.496 140.548 750.748 140.58 751.076 140.604C751.34 140.62 751.564 140.644 751.748 140.676C751.94 140.708 752.12 140.768 752.288 140.856C752.808 141.136 753.068 141.612 753.068 142.284C753.068 142.516 753.02 142.74 752.924 142.956C752.836 143.164 752.708 143.348 752.54 143.508C752.164 143.876 751.648 144.06 750.992 144.06C750.352 144.06 749.832 143.88 749.432 143.52C749.12 143.216 748.928 142.84 748.856 142.392H749.696ZM754.804 136.332C754.948 136.332 755.072 136.384 755.176 136.488C755.28 136.592 755.332 136.716 755.332 136.86C755.332 137.012 755.28 137.14 755.176 137.244C755.072 137.348 754.948 137.4 754.804 137.4C754.652 137.4 754.524 137.348 754.42 137.244C754.316 137.14 754.264 137.012 754.264 136.86C754.264 136.716 754.316 136.592 754.42 136.488C754.524 136.384 754.652 136.332 754.804 136.332ZM755.212 138V144H754.384V138H755.212ZM757.038 141.444C757.134 141.956 757.386 142.384 757.794 142.728C758.202 143.064 758.67 143.232 759.198 143.232C759.59 143.232 759.95 143.14 760.278 142.956C760.606 142.772 760.87 142.52 761.07 142.2L761.778 142.608C761.506 143.048 761.142 143.4 760.686 143.664C760.23 143.928 759.734 144.06 759.198 144.06C758.654 144.06 758.15 143.924 757.686 143.652C757.222 143.38 756.854 143.012 756.582 142.548C756.31 142.084 756.174 141.58 756.174 141.036C756.174 140.484 756.31 139.98 756.582 139.524C756.854 139.06 757.222 138.692 757.686 138.42C758.15 138.148 758.654 138.012 759.198 138.012C759.742 138.012 760.246 138.148 760.71 138.42C761.174 138.692 761.542 139.06 761.814 139.524C762.086 139.98 762.222 140.484 762.222 141.036C762.222 141.132 762.214 141.268 762.198 141.444H757.038ZM759.198 138.828C758.846 138.828 758.502 138.912 758.166 139.08C757.83 139.24 757.558 139.464 757.35 139.752C757.142 140.032 757.038 140.336 757.038 140.664H761.358C761.358 140.336 761.254 140.032 761.046 139.752C760.838 139.464 760.566 139.24 760.23 139.08C759.902 138.912 759.558 138.828 759.198 138.828ZM765.887 138.816H764.891V144H764.063V138.816H763.067V138H764.063V136.02H764.891V138H765.887V138.816ZM769.793 138.816H768.797V144H767.969V138.816H766.973V138H767.969V136.02H768.797V138H769.793V138.816ZM771.379 141.444C771.475 141.956 771.727 142.384 772.135 142.728C772.543 143.064 773.011 143.232 773.539 143.232C773.931 143.232 774.291 143.14 774.619 142.956C774.947 142.772 775.211 142.52 775.411 142.2L776.119 142.608C775.847 143.048 775.483 143.4 775.027 143.664C774.571 143.928 774.075 144.06 773.539 144.06C772.995 144.06 772.491 143.924 772.027 143.652C771.563 143.38 771.195 143.012 770.923 142.548C770.651 142.084 770.515 141.58 770.515 141.036C770.515 140.484 770.651 139.98 770.923 139.524C771.195 139.06 771.563 138.692 772.027 138.42C772.491 138.148 772.995 138.012 773.539 138.012C774.083 138.012 774.587 138.148 775.051 138.42C775.515 138.692 775.883 139.06 776.155 139.524C776.427 139.98 776.563 140.484 776.563 141.036C776.563 141.132 776.555 141.268 776.539 141.444H771.379ZM773.539 138.828C773.187 138.828 772.843 138.912 772.507 139.08C772.171 139.24 771.899 139.464 771.691 139.752C771.483 140.032 771.379 140.336 771.379 140.664H775.699C775.699 140.336 775.595 140.032 775.387 139.752C775.179 139.464 774.907 139.24 774.571 139.08C774.243 138.912 773.899 138.828 773.539 138.828ZM778.365 142.392C778.429 142.616 778.529 142.792 778.665 142.92C778.889 143.128 779.217 143.232 779.649 143.232C780.025 143.232 780.329 143.144 780.561 142.968C780.793 142.792 780.909 142.564 780.909 142.284C780.909 142.02 780.857 141.824 780.753 141.696C780.649 141.568 780.513 141.488 780.345 141.456C780.185 141.416 779.961 141.392 779.673 141.384C779.257 141.36 778.917 141.316 778.653 141.252C778.389 141.18 778.149 141.024 777.933 140.784C777.669 140.456 777.537 140.096 777.537 139.704C777.537 139.608 777.541 139.536 777.549 139.488C777.613 138.984 777.825 138.6 778.185 138.336C778.545 138.064 779.029 137.928 779.637 137.928H779.649C780.097 137.928 780.461 138.012 780.741 138.18C781.021 138.348 781.237 138.552 781.389 138.792C781.549 139.056 781.649 139.332 781.689 139.62H780.849C780.833 139.508 780.781 139.376 780.693 139.224C780.493 138.92 780.145 138.76 779.649 138.744C779.145 138.744 778.813 138.828 778.653 138.996C778.493 139.164 778.397 139.36 778.365 139.584C778.357 139.616 778.353 139.66 778.353 139.716C778.353 139.908 778.421 140.08 778.557 140.232C778.669 140.368 778.813 140.46 778.989 140.508C779.165 140.548 779.417 140.58 779.745 140.604C780.009 140.62 780.233 140.644 780.417 140.676C780.609 140.708 780.789 140.768 780.957 140.856C781.477 141.136 781.737 141.612 781.737 142.284C781.737 142.516 781.689 142.74 781.593 142.956C781.505 143.164 781.377 143.348 781.209 143.508C780.833 143.876 780.317 144.06 779.661 144.06C779.021 144.06 778.501 143.88 778.101 143.52C777.789 143.216 777.597 142.84 777.525 142.392H778.365ZM788.527 142.248V136.02H789.343V142.248H788.527ZM788.923 144.048C788.795 144.048 788.683 144 788.587 143.904C788.499 143.808 788.455 143.696 788.455 143.568C788.455 143.44 788.499 143.328 788.587 143.232C788.683 143.136 788.795 143.088 788.923 143.088C789.059 143.088 789.171 143.136 789.259 143.232C789.355 143.32 789.403 143.432 789.403 143.568C789.403 143.696 789.355 143.808 789.259 143.904C789.171 144 789.059 144.048 788.923 144.048Z" fill="#D9D9D9"/>
</svg>
