<svg width="427" height="439" viewBox="0 0 427 439" fill="none" xmlns="http://www.w3.org/2000/svg">
<path fill-rule="evenodd" clip-rule="evenodd" d="M427 208C418.252 91.5885 326.006 0 213.5 0C100.994 0 8.74821 91.5887 0 208C12.3411 99.049 103.221 14.456 213.5 14.456C323.779 14.456 414.659 99.0488 427 208Z" fill="#FCB040"/>
<mask id="mask0_35_272" style="mask-type:alpha" maskUnits="userSpaceOnUse" x="0" y="13" width="426" height="426">
<circle cx="213" cy="226" r="213" fill="white"/>
</mask>
<g mask="url(#mask0_35_272)">
<path fill-rule="evenodd" clip-rule="evenodd" d="M337 230.66V250.5L379 253.602V223H412V256.04L425 257V217.5L415.5 191.5L397.5 175L379.107 188.795L363 216.271L363 245H362L362 217.136L337 230.66ZM337 229.525L362 216L377.038 190.346L375.5 191.5L353.5 210.5L337 229.5V229.525Z" fill="#818286"/>
<path d="M204.519 270.479C246.481 258.037 346.256 237.156 425.722 249.017L427.598 249.312C446.733 252.472 458.046 259.17 463.248 268.38C468.619 277.89 467.179 289.553 462.093 301.524C451.921 325.464 426.594 352.026 406.472 369.143L406.005 369.54L405.394 369.496L341.894 364.996L341.505 364.969L341.179 364.755L202.179 273.755L199.492 271.996L202.564 271.064L204.519 270.479Z" fill="#FCB040" stroke="white" stroke-width="3"/>
<path d="M386 351.5C296.4 269.9 171 267.167 119.5 276L199 443L245 461.5C329.333 458.833 475.6 433.1 386 351.5Z" fill="#8CC63E" stroke="white" stroke-width="3"/>
<path d="M82.5996 87.5038L83.835 87.5858L83.9883 88.8143V88.8153C83.9885 88.8168 83.9888 88.8198 83.9893 88.8231C83.9901 88.8301 83.9923 88.8416 83.9941 88.8563C83.9979 88.8857 84.0029 88.9306 84.0107 88.9901C84.0264 89.1096 84.0513 89.289 84.084 89.5262C84.1495 90.0011 84.2501 90.7073 84.3896 91.6259C84.6688 93.4634 85.1036 96.1519 85.7256 99.5419C86.9356 106.136 88.853 115.384 91.7061 126.194C104.652 128.553 113.726 129.408 122.316 130.513C130.571 131.574 138.312 132.862 148.404 135.932L150.455 136.57L150.837 136.692L151.107 136.988C152.291 138.284 154.611 140.108 157.893 142.345C161.141 144.559 165.231 147.111 169.87 149.865C179.146 155.371 190.558 161.649 201.693 167.589C212.826 173.527 223.67 179.119 231.806 183.252C235.873 185.318 239.263 187.019 241.671 188.215C242.875 188.813 243.833 189.283 244.506 189.61C244.843 189.774 245.105 189.899 245.29 189.986C245.409 190.042 245.472 190.071 245.497 190.083L245.475 190.077C246.078 190.278 247.328 190.514 248.703 190.701C250.061 190.886 251.354 191 252 191C252.497 191 253.048 191.19 253.439 191.34C253.903 191.517 254.444 191.761 255.019 192.047C256.172 192.62 257.546 193.396 258.866 194.233C260.18 195.066 261.484 195.987 262.478 196.853C262.971 197.284 263.431 197.737 263.778 198.189C264.081 198.583 264.5 199.227 264.5 200V200.381L264.318 200.716C259.661 209.295 257.197 217.898 255.458 225.102C254.602 228.651 253.889 232.003 253.203 234.684C252.518 237.361 251.784 239.705 250.766 241.306L250.73 241.36L250.691 241.411C247.473 245.621 242.484 250.086 238.37 253.458C236.3 255.154 234.428 256.594 233.072 257.609C232.394 258.117 231.844 258.52 231.463 258.796C231.272 258.934 231.124 259.041 231.022 259.113C230.972 259.149 230.933 259.177 230.906 259.196C230.893 259.205 230.883 259.213 230.876 259.218C230.873 259.22 230.87 259.222 230.868 259.224L230.865 259.225L230 258L230.864 259.225L229.962 259.863L229.085 259.189L209.941 244.464C209.703 244.447 209.373 244.423 208.961 244.393C208.04 244.327 206.708 244.232 205.064 244.113C201.778 243.876 197.245 243.548 192.266 243.183C182.669 242.481 171.401 241.64 164.176 241.057C159.587 246.679 150.977 253.305 139.286 255.89C128.992 258.165 116.408 257.286 102.208 249.981C126.082 277.97 186.854 356.22 200.98 443.26L201.122 444.164C202.529 453.447 202.117 461.003 200.094 467.015C197.993 473.257 194.177 477.76 189.038 480.74C178.88 486.631 163.771 486.457 146.905 482.931C113.047 475.85 70.5261 454.899 41.7334 437.79L41.3496 437.561L41.1533 437.161L-52.3467 246.661L-53.1523 245.018L-51.3838 244.55L-1.48535 231.341C-1.20448 219.448 3.32307 200.375 12.8584 181.305C22.6039 161.814 37.6686 142.146 59.0137 130.112C59.2639 121.888 62.9098 111.465 67.3633 103.107C69.6807 98.7582 72.2638 94.8792 74.7871 92.0946C76.0473 90.7039 77.3303 89.5438 78.5967 88.7391C79.7685 87.9945 81.0454 87.4785 82.3408 87.493L82.5996 87.5038Z" fill="#818286" stroke="white" stroke-width="3"/>
<path d="M133.5 153C137.5 152 147 152.5 147 152.5C154.5 153 150.5 161.5 148.5 163.5C141 157.5 133.5 153 133.5 153Z" fill="white"/>
<path d="M234.889 234.705L251 244.205L252.999 247.551L228 234.205L234.889 234.705Z" fill="white"/>
<circle cx="398.5" cy="201.5" r="7.5" fill="white"/>
</g>
</svg>
