<svg width="438" height="328" viewBox="0 0 438 328" fill="none" xmlns="http://www.w3.org/2000/svg">
<path fill-rule="evenodd" clip-rule="evenodd" d="M44.2921 0C19.8303 0 0 19.8745 0 44.391V57.248C0 70.255 6.30847 82.4727 17.0158 89.8574C39.354 105.264 62.0118 120.212 85.0264 134.578C111.123 150.867 138.754 166.967 163.325 178.943C175.613 184.932 186.89 189.768 196.661 193.079C206.654 196.465 214.085 197.91 219 197.91C223.892 197.91 231.2 196.475 240.97 193.106C250.529 189.809 261.522 184.989 273.479 179.011C297.389 167.058 324.156 150.979 349.398 134.7C374.585 118.456 397.983 102.187 415.101 89.9654C417.428 88.3039 419.638 86.7179 421.72 85.2179C432.005 77.8054 438 65.8583 438 53.1799V44.391C438 19.8745 418.17 0 393.708 0H44.2921ZM438 111.453C436.384 112.615 434.698 113.823 432.947 115.073C415.577 127.475 391.761 144.037 366.043 160.623C340.379 177.175 312.551 193.927 287.209 206.597C274.539 212.931 262.242 218.37 250.978 222.255C239.923 226.068 228.872 228.737 219 228.737C209.151 228.737 198.011 226.078 186.81 222.282C175.387 218.411 162.845 212.988 149.873 206.665C123.923 194.018 95.2663 177.287 68.7657 160.745C42.4287 144.306 17.9602 127.889 0 115.528V283.609C0 308.125 19.8303 328 44.2921 328H393.708C418.17 328 438 308.125 438 283.609V111.453Z" fill="white"/>
</svg>
