<svg width="586" height="586" viewBox="0 0 586 586" fill="none" xmlns="http://www.w3.org/2000/svg">
<path d="M201.813 102.996C213.397 115.183 216.748 132.306 211.882 147.36C209.781 153.86 206.148 159.974 200.985 165.138L192.413 173.71C184.667 181.455 177.808 190.456 177.298 201.397C176.276 223.308 185.582 267.648 251.984 334.05C318.385 400.451 362.725 409.757 384.636 408.735C395.577 408.225 404.578 401.366 412.323 393.62L420.895 385.048C426.059 379.885 432.173 376.252 438.673 374.151C454.069 369.175 471.63 372.792 483.861 385.022L575.002 476.162L575.798 476.987C592.094 494.404 582.927 521.009 582.876 521.157L577.332 531.078C567.007 549.553 551.557 564.732 531.341 570.996C466.553 591.068 306.296 615.457 138.436 447.597C-29.4239 279.737 -5.03539 119.48 15.0374 54.6919C21.3007 34.4758 36.4803 19.0259 54.9553 8.70156L64.8762 3.15753C65.0269 3.10545 92.4833 -6.35592 109.871 11.0316L201.011 102.172L201.813 102.996Z" fill="white"/>
</svg>
