<svg width="553" height="571" viewBox="0 0 553 571" fill="none" xmlns="http://www.w3.org/2000/svg">
<path d="M296.983 65.9152C330.453 -24.0671 479.572 -17.198 507.727 60.1691L545.115 162.912C557.578 197.16 553.769 224.085 539.745 254.73C503.387 334.176 498.756 339.645 470.291 399.192C370.642 607.653 92.3695 616.177 41.3017 475.845L9.08104 387.303C-17.6687 313.796 20.0866 230.35 98.2715 203.497C144.517 187.614 152.339 185.713 213.697 167.168C262.708 152.355 277.858 117.334 296.983 65.9152Z" fill="#E2513A"/>
<path d="M297.79 63.8247C332.501 -23.2634 477.484 -16.7032 507.046 58.3686L507.726 60.1694L545.115 162.913C557.188 196.09 553.992 222.396 541.03 251.868L539.745 254.73C505.659 329.21 499.458 338.672 475.362 388.629L470.291 399.192C370.641 607.653 92.37 616.177 41.3023 475.845L9.08064 387.302L8.46639 385.579C-16.8751 313.071 20.1059 231.437 96.4459 204.137L98.2711 203.497C138.736 189.599 149.784 186.406 193.018 173.402L213.697 167.168C262.707 152.356 277.857 117.334 296.983 65.9155L297.79 63.8247ZM404.177 55.397C373.54 55.3013 354.651 68.9627 348.637 85.1284L346.89 89.8159C338.042 113.46 327.487 140.024 311.223 162.541C291.951 189.22 265.881 208.97 229.641 219.923L208.885 226.181C165.625 239.194 155.59 242.083 116.173 255.621L115.033 256.021C66.9936 273.193 44.7178 324.069 60.8697 368.456L93.0914 456.999C106.102 492.752 155.167 522.732 230.99 513.6C302.097 505.036 378.501 461.593 419.603 377.418L420.568 375.423C448.578 316.828 452.766 311.795 483.183 245.834L489.632 231.796C498.911 211.522 499.877 199.761 493.326 181.759L455.937 79.0161C452.889 70.6404 436.781 55.499 404.177 55.397Z" fill="white"/>
<path d="M348.027 172.337C352.888 144.779 379.167 126.38 406.724 131.241C434.281 136.102 452.681 162.382 447.821 189.939C442.96 217.496 416.68 235.895 389.122 231.035C361.565 226.174 343.166 199.894 348.027 172.337Z" fill="white"/>
</svg>
