<svg width="164" height="164" viewBox="0 0 164 164" fill="none" xmlns="http://www.w3.org/2000/svg">
<circle cx="82" cy="82" r="80.5" stroke="black" stroke-width="3"/>
<path d="M30 82L32.9573 81.0589C47.3368 76.483 62.8291 76.814 77 82V82" stroke="black" stroke-width="3" stroke-linecap="round"/>
<circle cx="34.9672" cy="123.962" r="12.4672" stroke="black" stroke-width="3"/>
<circle cx="34.9673" cy="123.962" r="3.69345" stroke="black" stroke-width="3"/>
<path d="M35 112V120M35 128V136" stroke="black" stroke-width="3" stroke-linecap="round" stroke-linejoin="round"/>
<path d="M47 124L39 124M31 124L23 124" stroke="black" stroke-width="3" stroke-linecap="round" stroke-linejoin="round"/>
<path d="M43.4852 115.515L37.8284 121.172M32.1715 126.828L26.5147 132.485" stroke="black" stroke-width="3" stroke-linecap="round" stroke-linejoin="round"/>
<path d="M43.4852 132.485L37.8284 126.828M32.1715 121.172L26.5147 115.515" stroke="black" stroke-width="3" stroke-linecap="round" stroke-linejoin="round"/>
<circle cx="34.9672" cy="123.962" r="12.4672" stroke="black" stroke-width="3"/>
<circle cx="34.9673" cy="123.962" r="3.69345" stroke="black" stroke-width="3"/>
<path d="M35 112V120M35 128V136" stroke="black" stroke-width="3" stroke-linecap="round" stroke-linejoin="round"/>
<path d="M47 124L39 124M31 124L23 124" stroke="black" stroke-width="3" stroke-linecap="round" stroke-linejoin="round"/>
<path d="M43.4852 115.515L37.8284 121.172M32.1715 126.828L26.5147 132.485" stroke="black" stroke-width="3" stroke-linecap="round" stroke-linejoin="round"/>
<path d="M43.4852 132.485L37.8284 126.828M32.1715 121.172L26.5147 115.515" stroke="black" stroke-width="3" stroke-linecap="round" stroke-linejoin="round"/>
<circle cx="77.4755" cy="126.471" r="9.67167" stroke="black" stroke-width="3"/>
<circle cx="77.5" cy="126.5" r="4" stroke="black" stroke-width="3"/>
<path d="M77.4999 130.971V136" stroke="black" stroke-width="3" stroke-linecap="round" stroke-linejoin="round"/>
<path d="M77.4999 117V122.029" stroke="black" stroke-width="3" stroke-linecap="round" stroke-linejoin="round"/>
<path d="M73.0294 126.5L68 126.5" stroke="black" stroke-width="3" stroke-linecap="round" stroke-linejoin="round"/>
<path d="M87 126.5L81.9706 126.5" stroke="black" stroke-width="3" stroke-linecap="round" stroke-linejoin="round"/>
<path d="M74.3387 129.661L70.7824 133.217" stroke="black" stroke-width="3" stroke-linecap="round" stroke-linejoin="round"/>
<path d="M84.2175 119.782L80.6612 123.339" stroke="black" stroke-width="3" stroke-linecap="round" stroke-linejoin="round"/>
<path d="M74.3389 123.339L70.7825 119.782" stroke="black" stroke-width="3" stroke-linecap="round" stroke-linejoin="round"/>
<path d="M84.2175 133.218L80.6612 129.661" stroke="black" stroke-width="3" stroke-linecap="round" stroke-linejoin="round"/>
<path d="M104.436 111.409V120.536L102.801 123.757V135C102.801 135 105.526 135 107.706 135C110.976 135 107.706 130.736 107.706 130.736L107.979 125.904C109.341 123.757 110.976 120.536 110.976 120.536M104.436 111.409C104.307 110.013 104.909 108.134 107.02 106.864M104.436 111.409C104.436 111.409 102.256 122.683 94.0806 125.367C98.4407 116.808 96.8057 114.093 96.8057 114.093C96.8057 114.093 97.0813 106.627 100.621 105.474C103.05 104.682 104.981 106.01 107.02 106.864M129 104.882L132.777 95.8104C133.057 95.2664 133.445 94.5079 133.867 93.7537M129 104.882L125 100.803C126.998 96.5181 127.327 91.546 133.867 93.7537M129 104.882C127.46 104.882 124.007 106.01 119.697 106.01M129 104.882L132.777 108.5M137.682 112.989V103.893C137.682 103.893 139.74 105.997 141.034 107.114M137.682 112.989C137.682 116.031 138.227 116.271 134.957 119.999C134.412 124.294 134.412 125.904 133.867 130.736C133.867 131.465 137.682 135 134.957 135C132.829 135 129.507 135 129.507 135V119.999M137.682 112.989L132.777 108.5M129.507 119.999V116.808M129.507 119.999C129.507 119.999 124.057 122.683 119.697 122.683M110.976 120.536C110.976 120.536 112.611 117.095 112.611 114.661C112.611 109.292 110.976 106.01 110.976 106.01M110.976 120.536C110.976 120.536 115.881 122.683 119.697 122.683M110.976 106.01C110.399 106.01 112.576 106.01 110.431 106.01C109.005 106.01 107.886 106.343 107.02 106.864M110.976 106.01C113.864 106.01 116.086 106.01 119.697 106.01M133.867 93.7537C135.088 91.5726 136.592 89.4283 136.592 92.6197C139.377 95.3625 143.762 99.6945 145.836 101.746M136.592 99.0618V99.5986M119.697 106.01C119.697 106.01 119.697 115.962 119.697 122.683M132.777 108.5L82.5 112.5M141.034 107.114C143.321 109.088 145.605 110.327 146.948 108.188C148.061 106.415 148.614 104.491 146.948 102.85C146.346 102.257 147.009 102.907 145.836 101.746M141.034 107.114L145.836 101.746" stroke="black" stroke-width="3" stroke-linecap="round" stroke-linejoin="round"/>
<path d="M74.6999 110.846V112.32C68.9213 113.713 65.8485 117.176 64.2646 120.419C63.4312 122.125 63.0176 123.749 62.8109 124.944C62.7769 125.141 62.7484 125.327 62.7245 125.5H51.9092C51.9083 124.998 51.8905 124.399 51.8393 123.73C51.687 121.743 51.235 119.075 50.0068 116.467C48.7699 113.84 46.7373 111.261 43.4505 109.542C40.4948 107.996 36.6388 107.205 31.6423 107.578C31.6308 106.025 31.603 105.154 31.575 104.272L31.5732 104.215C31.5438 103.29 31.5143 102.335 31.5039 100.5H45.1655L54.068 113.317C54.3484 113.721 54.8086 113.961 55.3 113.961H62.9999C63.8283 113.961 64.4999 113.29 64.4999 112.461V100.5H74.6999V110.846ZM77.6999 112.461V112.346H83.5V112.527L80.9527 113.555L77.6999 112.461Z" stroke="black" stroke-width="3" stroke-linejoin="round"/>
<path d="M76 106H82" stroke="black" stroke-width="3" stroke-linecap="round"/>
<path d="M32.5 100C32.5 100.828 33.1716 101.5 34 101.5C34.8284 101.5 35.5 100.828 35.5 100H32.5ZM34 81L33.6746 79.5357L32.5 79.7967V81H34ZM43 79H44.5C44.5 78.545 44.2935 78.1146 43.9386 77.8299C43.5837 77.5452 43.1187 77.437 42.6746 77.5357L43 79ZM43 100L41.6444 100.642L44.5 100H43ZM35.5 100V81H32.5V100H35.5ZM34.3254 82.4643L43.3254 80.4643L42.6746 77.5357L33.6746 79.5357L34.3254 82.4643ZM41.5 79V100H44.5V79H41.5ZM44.3556 99.3579L35.3556 80.3579L32.6444 81.6421L41.6444 100.642L44.3556 99.3579Z" fill="black"/>
<path d="M69 100V80" stroke="black" stroke-width="3" stroke-linecap="round"/>
<path d="M56.3028 109.5L50.3028 100.5H60V109.5H56.3028Z" stroke="black" stroke-width="3" stroke-linecap="round" stroke-linejoin="round"/>
<circle cx="82.5" cy="39.5" r="12" stroke="black" stroke-width="3"/>
<path d="M82.5837 21.5838L82.5837 14.5838" stroke="black" stroke-width="3" stroke-linecap="round"/>
<path d="M82.5837 64.5838L82.5837 57.5838" stroke="black" stroke-width="3" stroke-linecap="round"/>
<path d="M100.584 39.5838L107.584 39.5838" stroke="black" stroke-width="3" stroke-linecap="round"/>
<path d="M57.5837 39.5838L64.5837 39.5838" stroke="black" stroke-width="3" stroke-linecap="round"/>
<path d="M95.3116 26.8558L100.261 21.9061" stroke="black" stroke-width="3" stroke-linecap="round"/>
<path d="M75.6954 22.954L71.8686 13.7152" stroke="black" stroke-width="3" stroke-linecap="round"/>
<path d="M93.299 65.4524L89.4721 56.2136" stroke="black" stroke-width="3" stroke-linecap="round"/>
<path d="M99.2136 32.6955L108.452 28.8687" stroke="black" stroke-width="3" stroke-linecap="round"/>
<path d="M56.7151 50.299L65.9539 46.4721" stroke="black" stroke-width="3" stroke-linecap="round"/>
<path d="M89.472 22.954L93.2989 13.7152" stroke="black" stroke-width="3" stroke-linecap="round"/>
<path d="M71.8685 65.4524L75.6954 56.2136" stroke="black" stroke-width="3" stroke-linecap="round"/>
<path d="M99.2136 46.4721L108.452 50.2989" stroke="black" stroke-width="3" stroke-linecap="round"/>
<path d="M56.7151 28.8687L65.9539 32.6955" stroke="black" stroke-width="3" stroke-linecap="round"/>
<path d="M64.906 57.2615L69.8558 52.3117" stroke="black" stroke-width="3" stroke-linecap="round"/>
<path d="M95.3116 52.3117L100.261 57.2615" stroke="black" stroke-width="3" stroke-linecap="round"/>
<path d="M64.906 21.9061L69.8558 26.8559" stroke="black" stroke-width="3" stroke-linecap="round"/>
<path d="M115.259 58.7172L118.606 60.6493L122.986 60.7877" stroke="black" stroke-width="3" stroke-linecap="round" stroke-linejoin="round"/>
<path d="M126.177 55L131.519 58.502L138.734 58.3646" stroke="black" stroke-width="3" stroke-linecap="round" stroke-linejoin="round"/>
<path d="M23 64.4756L26.8649 64.4752L30.7274 62.405" stroke="black" stroke-width="3" stroke-linecap="round" stroke-linejoin="round"/>
<path d="M30.5966 55.7975L36.9741 56.1592L43.1536 52.4328" stroke="black" stroke-width="3" stroke-linecap="round" stroke-linejoin="round"/>
</svg>
