<svg width="164" height="164" viewBox="0 0 164 164" fill="none" xmlns="http://www.w3.org/2000/svg">
<circle cx="82" cy="82" r="80.5" stroke="black" stroke-width="3"/>
<path d="M138.5 124C138.5 133.703 130.851 141.5 121.5 141.5C112.149 141.5 104.5 133.703 104.5 124C104.5 114.297 112.149 106.5 121.5 106.5C130.851 106.5 138.5 114.297 138.5 124Z" stroke="black" stroke-width="3"/>
<path d="M131.5 124C131.5 129.86 126.963 134.5 121.5 134.5C116.037 134.5 111.5 129.86 111.5 124C111.5 118.14 116.037 113.5 121.5 113.5C126.963 113.5 131.5 118.14 131.5 124Z" stroke="black" stroke-width="3"/>
<path d="M75.1935 110.363L75.366 109.481C76.1877 105.276 73.7823 101.11 69.7304 99.7194L68.8797 99.4275C67.5717 98.9786 66.477 98.06 65.8078 96.8499L65.3726 96.0628C63.2996 92.3139 58.7789 90.6685 54.7811 92.2078L53.9418 92.531C52.6513 93.0279 51.2222 93.0279 49.9317 92.531L49.0925 92.2078C45.0946 90.6685 40.574 92.3139 38.5009 96.0628L38.0657 96.8499C37.3965 98.06 36.3018 98.9786 34.9938 99.4275L34.1432 99.7194C30.0912 101.11 27.6858 105.276 28.5075 109.481L28.6801 110.363C28.9453 111.72 28.6972 113.128 27.9837 114.312L27.5197 115.083C25.3096 118.753 26.1449 123.49 29.477 126.183L30.1765 126.748C31.252 127.617 31.9666 128.855 32.1815 130.221L32.3213 131.109C32.9871 135.341 36.6724 138.434 40.9556 138.354L41.8548 138.338C43.2374 138.312 44.5803 138.801 45.623 139.709L46.3011 140.3C49.5314 143.114 54.3422 143.114 57.5724 140.3L58.2505 139.709C59.2933 138.801 60.6361 138.312 62.0188 138.338L62.918 138.354C67.2012 138.434 70.8865 135.341 71.5523 131.109L71.692 130.221C71.907 128.855 72.6215 127.617 73.6971 126.748L74.3966 126.183C77.7286 123.49 78.564 118.753 76.3538 115.083L75.8898 114.312C75.1764 113.128 74.9282 111.72 75.1935 110.363Z" stroke="black" stroke-width="3"/>
<path d="M61.2839 132.047C52.783 136.955 41.8067 133.942 36.7864 125.247C31.7661 116.552 34.6455 105.54 43.1464 100.632C51.6473 95.7236 62.6236 98.736 67.6439 107.431C72.6641 116.127 69.7848 127.139 61.2839 132.047Z" stroke="black" stroke-width="3"/>
<path d="M84.6717 124H100.5C101.5 93.5 138.5 97 143.209 118.38C143.209 72 147 74.7438 95.1178 74.7438L84.6717 44H37.3161V82.5L29.5 86.5L33.1376 91.3045C58.9046 78.0869 84.6717 91.327 84.6717 124Z" stroke="black" stroke-width="3" stroke-linecap="round" stroke-linejoin="round"/>
<path d="M83.369 97H89.5354C90.8709 97 91.8362 95.7223 91.4688 94.4383C88.7416 84.9063 81.4662 58.8576 79.6755 52.4422C79.4341 51.5776 78.6521 51 77.7546 51H62.2091C61.1046 51 60.2091 51.8912 60.2091 52.9957L60.2091 80.3954C60.2091 81.3938 60.9475 82.2338 61.9275 82.4253C70.8045 84.1594 78.4073 89.5759 81.4451 95.743C81.8107 96.4852 82.5416 97 83.369 97Z" stroke="black" stroke-width="3" stroke-linecap="round" stroke-linejoin="round"/>
<rect x="42.2091" y="51" width="11" height="31" rx="2" stroke="black" stroke-width="3"/>
<mask id="path-9-inside-1_271_319" fill="white">
<rect x="30" y="35" width="60" height="10" rx="2"/>
</mask>
<rect x="30" y="35" width="60" height="10" rx="2" stroke="black" stroke-width="6" mask="url(#path-9-inside-1_271_319)"/>
<mask id="path-10-inside-2_271_319" fill="white">
<rect x="83" y="115" width="19" height="10" rx="2"/>
</mask>
<rect x="83" y="115" width="19" height="10" rx="2" stroke="black" stroke-width="6" mask="url(#path-10-inside-2_271_319)"/>
<path d="M120.5 68L120.5 73.8931C120.5 74.1795 120.26 74.4073 119.974 74.3924L111.974 73.9758C111.708 73.9619 111.5 73.7425 111.5 73.4765L111.5 68C111.5 67.7239 111.724 67.5 112 67.5L120 67.5C120.276 67.5 120.5 67.7239 120.5 68Z" stroke="black" stroke-width="3"/>
<path d="M119.5 58.7846L119.5 67C119.5 67.2761 119.276 67.5 119 67.5L114 67.5C113.724 67.5 113.5 67.2761 113.5 67L113.5 60.4698C113.5 60.2552 113.637 60.0645 113.84 59.996L118.84 58.3108C119.164 58.2016 119.5 58.4426 119.5 58.7846Z" stroke="black" stroke-width="3"/>
<path d="M132.034 33.2899L133.513 33.0412L133.212 31.2494L131.509 31.8845L132.034 33.2899ZM132.034 33.2899C133.513 33.0412 133.513 33.0416 133.513 33.0421L133.513 33.0431L133.514 33.0456L133.515 33.0525L133.518 33.0741C133.521 33.0919 133.525 33.1164 133.53 33.1474C133.539 33.2094 133.552 33.2973 133.566 33.409C133.596 33.6321 133.633 33.9506 133.668 34.3465C133.738 35.1366 133.798 36.2431 133.76 37.5198C133.687 40.0402 133.229 43.3791 131.574 46.2451C130.022 48.9334 128.117 51.1606 126.234 52.5694C125.295 53.272 124.301 53.8162 123.308 54.0751C122.307 54.3364 121.203 54.3285 120.216 53.7587C119.229 53.1889 118.67 52.2366 118.396 51.2388C118.124 50.2498 118.098 49.1169 118.237 47.9523C118.516 45.6172 119.492 42.8537 121.044 40.1654C122.699 37.2993 125.361 35.2337 127.507 33.9095C128.594 33.2387 129.582 32.7375 130.302 32.4027C130.662 32.235 130.956 32.1083 131.164 32.0221C131.268 31.979 131.351 31.946 131.409 31.9231C131.438 31.9117 131.462 31.9027 131.478 31.8963L131.499 31.8885L131.505 31.886L131.508 31.8851L131.509 31.8848C131.509 31.8846 131.509 31.8845 132.034 33.2899Z" stroke="black" stroke-width="3"/>
<path d="M120.394 53.0696L126.5 42.4931" stroke="black" stroke-width="3" stroke-linecap="round"/>
<path d="M100.998 42.8978L101.14 41.4046L99.3317 41.2317L99.5046 43.0405L100.998 42.8978ZM100.998 42.8978C101.14 41.4046 101.141 41.4046 101.141 41.4046L101.142 41.4047L101.144 41.4049L101.15 41.4055L101.166 41.4072L101.219 41.4129C101.263 41.4179 101.324 41.4251 101.401 41.4352C101.553 41.4553 101.769 41.4867 102.033 41.5331C102.56 41.6257 103.291 41.7796 104.116 42.0267C105.733 42.5115 107.863 43.3987 109.483 45.0191C110.958 46.4943 112.09 48.1344 112.694 49.644C112.995 50.3961 113.193 51.1858 113.188 51.946C113.182 52.7153 112.963 53.5599 112.311 54.2115C111.66 54.863 110.815 55.0824 110.046 55.0875C109.286 55.0925 108.496 54.8946 107.744 54.5938C106.234 53.9899 104.594 52.8583 103.119 51.383C101.499 49.7626 100.612 47.6334 100.127 46.0155C99.8796 45.1907 99.7258 44.4601 99.6332 43.9329C99.5867 43.6686 99.5554 43.4533 99.5352 43.3005C99.5252 43.2241 99.5179 43.1631 99.5129 43.1192L99.5072 43.0664L99.5055 43.05L99.505 43.0444L99.5048 43.0422L99.5047 43.0413C99.5046 43.0409 99.5046 43.0405 100.998 42.8978ZM100.852 44.3907L100.854 44.3909L100.854 44.3908L100.853 44.3907L100.852 44.3907Z" stroke="black" stroke-width="3"/>
<path d="M111.54 53.6164L105.883 47.9595" stroke="black" stroke-width="3" stroke-linecap="round"/>
<path d="M65 55L65 70" stroke="black" stroke-width="3" stroke-linecap="round"/>
<path d="M135.5 89.5C133.5 83 129.5 79 105.5 79C102.181 79 97 79 97 79" stroke="black" stroke-width="3" stroke-linecap="round"/>
<path d="M65 75L65 78" stroke="black" stroke-width="3" stroke-linecap="round"/>
<path d="M46 55L46 70" stroke="black" stroke-width="3" stroke-linecap="round"/>
</svg>
