<svg width="164" height="164" viewBox="0 0 164 164" fill="none" xmlns="http://www.w3.org/2000/svg">
<circle cx="82" cy="82" r="80.5" stroke="black" stroke-width="3"/>
<path fill-rule="evenodd" clip-rule="evenodd" d="M88.3937 81.0386L80.5059 36.2202L82.0685 35.253L89.622 76.4554L91.333 70.0707L84.5309 32.9667C84.2997 31.7058 83.1265 31.1499 82.0728 31.8021L78.7906 33.8336C77.9669 34.3434 77.4938 35.4341 77.6678 36.4225L85.964 83.5614C86.1044 84.3591 86.6393 84.9212 87.3307 85.0051L88.3937 81.0386Z" fill="black"/>
<path fill-rule="evenodd" clip-rule="evenodd" d="M102.067 41.48L88.5586 91.885L90.6976 92.6115L103.472 42.0959L102.067 41.48ZM101.98 38.1918C100.949 37.7399 99.8561 38.2676 99.5637 39.3587L85.5134 91.7868C85.2146 92.9016 85.8711 94.1498 86.9488 94.5158L90.9775 95.884C91.9805 96.2246 92.9789 95.6709 93.2427 94.6278L106.49 42.2447C106.754 41.1998 106.187 40.0354 105.205 39.605L101.98 38.1918Z" fill="black"/>
<path fill-rule="evenodd" clip-rule="evenodd" d="M102.067 41.48L88.5586 91.885L90.6976 92.6115L103.472 42.0959L102.067 41.48ZM101.98 38.1918C100.949 37.7399 99.8561 38.2676 99.5637 39.3587L85.5134 91.7868C85.2146 92.9016 85.8711 94.1498 86.9488 94.5158L90.9775 95.884C91.9805 96.2246 92.9789 95.6709 93.2427 94.6278L106.49 42.2447C106.754 41.1998 106.187 40.0354 105.205 39.605L101.98 38.1918Z" fill="black"/>
<path fill-rule="evenodd" clip-rule="evenodd" d="M139.307 94.9559C140.51 94.717 141.655 94.6194 142.689 94.6052C142.936 93.9369 143.157 93.2487 143.351 92.5425C146.021 82.8239 146.503 58.7126 139.459 56.7776C132.415 54.8426 120.512 75.8167 117.842 85.5353C117.648 86.2415 117.487 86.9462 117.358 87.6467C118.239 88.1871 119.174 88.8559 120.086 89.676C120.21 88.5824 120.424 87.4623 120.735 86.3299C121.963 81.8611 125.44 74.4841 129.498 68.4631C131.524 65.4575 133.582 62.9604 135.44 61.3633C137.48 59.6103 138.469 59.6169 138.664 59.6705C138.859 59.724 139.713 60.2236 140.571 62.7727C141.353 65.095 141.846 68.2932 142.052 71.9118C142.465 79.1611 141.686 87.2791 140.458 91.7478C140.147 92.8802 139.759 93.9523 139.307 94.9559ZM126.046 106.709C126.475 105.7 126.936 104.772 127.423 103.92C127.129 103.88 126.841 103.821 126.557 103.743C126.274 103.665 125.996 103.569 125.723 103.453C125.706 104.435 125.628 105.467 125.482 106.554C125.575 106.583 125.669 106.61 125.763 106.636C125.857 106.662 125.952 106.686 126.046 106.709Z" fill="black"/>
<path d="M128.425 92.4035L130.744 93.0405" stroke="black" stroke-width="3" stroke-linecap="round"/>
<path d="M130.973 83.1275L133.292 83.7646" stroke="black" stroke-width="3" stroke-linecap="round"/>
<path d="M133.521 73.8516L135.84 74.4886" stroke="black" stroke-width="3" stroke-linecap="round"/>
<path d="M135.432 66.8946L137.751 67.5316" stroke="black" stroke-width="3" stroke-linecap="round"/>
<path d="M134.032 88.7036L137.14 89.5575" stroke="black" stroke-width="3" stroke-linecap="round"/>
<path d="M124.318 86.0352L127.426 86.8891" stroke="black" stroke-width="3" stroke-linecap="round"/>
<path d="M136.515 79.6619L139.624 80.5158" stroke="black" stroke-width="3" stroke-linecap="round"/>
<path d="M126.802 76.9936L129.91 77.8474" stroke="black" stroke-width="3" stroke-linecap="round"/>
<path fill-rule="evenodd" clip-rule="evenodd" d="M87.7169 104.51C85.9975 108.506 84.4946 111.998 78.1063 110C71.8205 113.525 65.9576 116.658 62 118.5V129C64 130 65.5 132.5 62 134.5V141.5H124V118.5C121.5 111 115.5 99.5 103.5 95C99.3451 97.6161 93.6755 101.031 87.7213 104.5L87.7169 104.51ZM90.0862 106.593C89.3428 108.295 88.3054 110.416 86.5482 111.836C84.385 113.584 81.683 113.96 78.5007 113.217C73.4447 116.037 68.6747 118.594 65 120.391V127.436C65.9287 128.255 66.7415 129.384 67.0111 130.822C67.4061 132.929 66.5071 134.711 65 136.035V138.5H121V118.995C118.627 112.129 113.425 102.618 103.79 98.3575C99.9721 100.735 95.1497 103.635 90.0862 106.593Z" fill="black"/>
<line x1="123.5" y1="120" x2="63.5" y2="120" stroke="black" stroke-width="3"/>
<circle cx="82" cy="131" r="3.5" fill="black"/>
<circle cx="96" cy="127" r="3.5" fill="black"/>
<circle cx="85.5" cy="118.5" r="3" fill="black"/>
<circle cx="103" cy="139" r="2.5" fill="black"/>
<circle cx="116" cy="131" r="3.5" fill="black"/>
<ellipse cx="97" cy="113.5" rx="3.5" ry="2" fill="black"/>
<circle cx="109.5" cy="125.5" r="2" fill="black"/>
<ellipse cx="111.5" cy="112" rx="3" ry="1.5" fill="black"/>
<ellipse cx="100.5" cy="106" rx="3" ry="1.5" fill="black"/>
<circle cx="72.5" cy="125.5" r="2" fill="black"/>
<rect x="44.5" y="18.5" width="27" height="9" rx="4.5" stroke="black" stroke-width="3"/>
<path d="M72 49H42" stroke="black" stroke-width="3"/>
<path d="M57.2812 75.8598C85.3586 62.3314 77.6511 111.034 57.2812 101.835" stroke="black" stroke-width="3" stroke-linecap="round"/>
<path d="M57.2812 75.8598C29.2039 62.3314 36.9114 111.034 57.2812 101.835" stroke="black" stroke-width="3" stroke-linecap="round"/>
<path d="M69.8346 69.0302C66.5935 72.2713 62.6306 73.5631 60.9831 71.9155C59.3355 70.268 60.6273 66.3051 63.8684 63.064C67.1094 59.823 72.9155 59.9831 72.9155 59.9831C72.9155 59.9831 73.0756 65.7892 69.8346 69.0302Z" stroke="black" stroke-width="3" stroke-linecap="round" stroke-linejoin="round"/>
<line x1="63.1334" y1="69.8393" x2="66.0037" y2="66.9916" stroke="black" stroke-width="3" stroke-linecap="round" stroke-linejoin="round"/>
<path d="M54.8132 73.431C54.8132 69.2122 55.1648 66.7513 50.2428 61.8294C49.0264 60.613 52.7038 56.9075 54.11 58.3138C55.5163 59.72 58.3288 67.1029 58.3288 73.7825" stroke="black" stroke-width="3" stroke-linecap="round"/>
<path d="M53.3848 126.002C54.9884 131.987 51.3521 138.209 45.1922 139.859C39.0323 141.51 32.7721 137.94 31.1685 131.955C30.3445 128.88 30.5312 124.396 31.7832 120.451C33.0571 116.437 35.239 113.539 37.9453 112.814C40.6515 112.088 43.9901 113.507 47.1005 116.347C50.1572 119.137 52.5607 122.927 53.3848 126.002Z" stroke="black" stroke-width="3"/>
<path fill-rule="evenodd" clip-rule="evenodd" d="M48.5 29C48.5 28.1716 47.8284 27.5 47 27.5C46.1716 27.5 45.5 28.1716 45.5 29C45.5 36.7404 42.6173 44.4912 39.6286 51.2354C38.9659 52.7309 38.2798 54.2155 37.6239 55.635L37.6238 55.6351C36.8416 57.3278 36.1021 58.9279 35.4961 60.3435C34.3852 62.9382 33.5 65.3872 33.5 67.3226V111.738C34.3975 110.923 35.3979 110.294 36.5 109.908V67.3226C36.5 66.0908 37.1148 64.1849 38.2539 61.5242C38.8636 60.1001 39.5595 58.5962 40.3127 56.9684C40.9625 55.5641 41.6549 54.0676 42.3714 52.4508C45.3827 45.6555 48.5 37.4121 48.5 29ZM56.6869 130.5C56.5909 131.526 56.3819 132.531 56.0694 133.5H60C60.8284 133.5 61.5 132.828 61.5 132C61.5 131.172 60.8284 130.5 60 130.5H56.6869Z" fill="black"/>
<path d="M85.6053 110.669C87.2078 109.374 88.1308 107.341 88.9039 105.547C94.4122 102.333 99.6561 99.1772 103.658 96.672C114.453 101.061 120.058 111.548 122.5 118.745V140H63.5V135.317C65.0588 134.191 65.8418 132.725 65.5368 131.099C65.2986 129.828 64.444 128.828 63.5 128.157V119.45C67.3462 117.61 72.6432 114.774 78.2896 111.617C81.4417 112.476 83.8041 112.125 85.6053 110.669Z" stroke="black" stroke-width="3"/>
<path d="M123.5 118.581V141H62.5V134.784C64.1625 133.754 64.7846 132.513 64.5539 131.283C64.3461 130.175 63.4703 129.261 62.5 128.701V118.818C66.4283 116.971 72.0977 113.939 78.1644 110.541C81.3349 111.49 83.4439 111.131 84.9767 109.892C86.4455 108.705 87.2904 106.766 88.1154 104.849C93.9208 101.465 99.4479 98.137 103.555 95.5559C115.149 100.021 121.018 111.179 123.5 118.581ZM89.834 106.162L89.6933 106.244L89.628 106.393C88.8855 108.093 87.8878 110.11 86.2339 111.447C84.2248 113.071 81.6952 113.449 78.6144 112.73L78.426 112.686L78.2571 112.78C73.204 115.599 68.4431 118.151 64.7804 119.942L64.5 120.079V120.391V127.436V127.661L64.6691 127.811C65.5381 128.578 66.2758 129.614 66.5197 130.914C66.8739 132.803 66.0821 134.419 64.67 135.659L64.5 135.809V136.035V138.5V139H65H121H121.5V138.5V118.995V118.911L121.473 118.832C119.082 111.915 113.815 102.244 103.993 97.9003L103.751 97.7933L103.526 97.9331C99.7127 100.308 94.8945 103.205 89.834 106.162Z" fill="black" stroke="black"/>
<path fill-rule="evenodd" clip-rule="evenodd" d="M87.3307 85.0051C86.6394 84.9212 86.1044 84.3591 85.9641 83.5614L85.1777 79.0932L82.762 108.334C83.0225 108.225 83.2306 108.089 83.4052 107.947C84.3316 107.199 84.9598 105.857 85.8798 103.72L86.1447 103.104L86.2073 103.067L86.9148 94.5039C85.8573 94.1235 85.2177 92.8898 85.5133 91.7868L87.3307 85.0051ZM93.8375 92.2755L93.3632 98.8507C92.3392 99.4623 91.2892 100.086 90.2208 100.716L90.5791 95.7487L90.9775 95.884C91.9804 96.2247 92.9788 95.6709 93.2426 94.6278L93.8375 92.2755ZM92.5545 26.2368L89.6788 61.0468L87.6037 49.7276L89.6471 24.9932C89.738 23.8924 90.7041 23.0737 91.8049 23.1647L96.8086 23.578C97.9013 23.6683 98.7177 24.6216 98.6388 25.7152L96.9515 49.1058L92.8359 64.4628L95.5753 26.4864L92.5545 26.2368Z" fill="black"/>
<path fill-rule="evenodd" clip-rule="evenodd" d="M68 26.6774C67.1716 26.6774 66.5 27.349 66.5 28.1774C66.5 36.5895 69.6173 44.8329 72.6286 51.6283C73.3451 53.2451 74.0375 54.7415 74.6873 56.1459L74.6874 56.146C75.4405 57.7736 76.1364 59.2775 76.7461 60.7016C77.8852 63.3624 78.5 65.2683 78.5 66.5V108.028L78.7034 108.091C79.8997 108.465 80.8036 108.596 81.5 108.58V66.5C81.5 64.5646 80.6148 62.1157 79.5039 59.5209C78.8979 58.1053 78.1584 56.5052 77.3762 54.8125C76.7202 53.393 76.0341 51.9084 75.3714 50.4128C72.3827 43.6686 69.5 35.9178 69.5 28.1774C69.5 27.349 68.8284 26.6774 68 26.6774Z" fill="black"/>
<path fill-rule="evenodd" clip-rule="evenodd" d="M115.256 88.1909C115.48 89.0731 115.702 90.1265 115.879 91.3378C116.253 93.8996 116.424 97.1633 115.995 100.999C115.124 100.092 114.194 99.2179 113.2 98.3894C113.332 95.8097 113.175 93.5846 112.91 91.7711C112.646 89.9625 112.275 88.5607 111.975 87.6236C111.825 87.155 111.694 86.803 111.603 86.5746C111.557 86.4605 111.522 86.3773 111.499 86.326C111.488 86.3003 111.48 86.2827 111.476 86.2731L111.472 86.265C111.226 85.7425 111.302 85.1251 111.667 84.6777C112.033 84.2291 112.625 84.0313 113.187 84.1696L112.829 85.6262C113.187 84.1696 113.188 84.1698 113.189 84.1701L113.192 84.1707L113.198 84.1721L113.214 84.1763C113.227 84.1797 113.245 84.1842 113.266 84.1899C113.309 84.2013 113.368 84.2175 113.441 84.2388C113.589 84.2815 113.796 84.345 114.054 84.4324C114.568 84.6072 115.283 84.8787 116.118 85.2733C117.781 86.0601 119.951 87.3514 121.934 89.3685C124.597 92.0758 126.823 95.9898 127.177 101.487C130.29 96.9423 134.203 94.7147 137.875 93.7474C140.611 93.0266 143.135 93.0248 144.968 93.1983C145.887 93.2854 146.64 93.4175 147.171 93.5298C147.437 93.586 147.648 93.6374 147.797 93.6761C147.871 93.6954 147.93 93.7116 147.972 93.7237C147.994 93.7297 148.011 93.7347 148.024 93.7385L148.04 93.7433L148.046 93.7451L148.048 93.7458C148.049 93.7461 148.05 93.7463 147.614 95.1815L148.05 93.7463C148.604 93.9147 149.012 94.387 149.098 94.9597C149.183 95.5309 148.933 96.1004 148.455 96.4239L148.454 96.4241L148.454 96.4244L148.453 96.425L148.452 96.4254L148.452 96.4256L148.451 96.4263L148.447 96.429C148.443 96.4322 148.436 96.4368 148.428 96.4428C148.42 96.4482 148.411 96.4548 148.4 96.4625C148.354 96.4951 148.282 96.5485 148.184 96.6234C147.989 96.7732 147.696 97.0086 147.328 97.3349C146.592 97.9875 145.557 99.0029 144.406 100.423C142.106 103.26 139.338 107.72 137.572 114.151C135.856 120.398 133.584 125.267 130.546 128.295C129.17 129.666 127.651 130.645 126 131.208V127.962C126.857 127.532 127.663 126.933 128.428 126.171C130.912 123.694 133.011 119.43 134.679 113.357C136.567 106.483 139.544 101.657 142.075 98.5338C142.846 97.5829 143.575 96.7906 144.218 96.1468C142.688 96.0413 140.726 96.0987 138.639 96.6484C134.147 97.8321 128.763 101.375 125.996 111.451C125.776 112.25 124.951 112.719 124.152 112.5C123.954 112.445 123.776 112.354 123.624 112.234C123.44 111.849 123.249 111.46 123.049 111.069C123.048 110.932 123.065 110.794 123.103 110.656C125.871 100.581 123.053 94.7847 119.795 91.472C118.282 89.9335 116.624 88.8817 115.256 88.1909ZM115.629 103.559C114.811 102.626 113.933 101.722 112.991 100.863C112.991 100.863 112.991 100.863 112.991 100.863C113.933 101.722 114.811 102.626 115.629 103.559C115.629 103.559 115.629 103.559 115.629 103.559ZM124 131.677C124 131.677 124 131.677 124 131.677V128.64C124 128.64 124 128.64 124 128.64V131.677Z" fill="black"/>
</svg>
