<svg width="164" height="164" viewBox="0 0 164 164" fill="none" xmlns="http://www.w3.org/2000/svg">
<circle cx="82" cy="82" r="80.5" stroke="black" stroke-width="3"/>
<path fill-rule="evenodd" clip-rule="evenodd" d="M114.707 74.2524C113.473 71.347 111.903 69.0024 110.196 67.4008C108.532 65.8391 106.496 64.7747 104.412 65.0408C102.182 65.3255 100.637 67.016 99.8247 69.3479C99.0592 71.5465 98.8311 74.552 99.2154 78.3536C98.957 78.5143 98.704 78.6792 98.4564 78.8482C96.482 77.8359 94.5807 77.5361 92.7383 77.811C90.6472 78.1231 88.8212 79.1494 87.221 80.2924C86.1902 81.0287 85.1273 81.9128 84.1227 82.7484L84.1226 82.7485L84.1226 82.7485L84.1226 82.7485L84.1221 82.7489L84.122 82.749C83.6159 83.1699 83.1247 83.5785 82.6597 83.9498C81.3286 85.0126 80.081 85.8876 78.8143 86.4408C78.131 86.3857 77.2849 86.5105 76.6353 87.2307C75.8219 88.1325 75.97 89.2802 76.11 89.868C76.4272 91.1987 77.4241 92.7593 78.6668 94.1423C80.8406 96.5615 84.4858 99.2114 88.724 99.4383C88.5089 106.179 89.878 112.403 90.5058 115.257L90.5061 115.259C90.5371 115.399 90.5662 115.532 90.5933 115.656C88.68 119.186 89.8572 123.043 92.1668 126.317C94.7504 129.979 99.0105 133.369 103.393 135.836C107.738 138.282 112.523 140 116.24 140C116.271 140 116.303 139.999 116.334 139.998C116.365 139.999 116.396 140 116.427 140C118.113 140 120.094 139.541 122.118 138.826C124.168 138.101 126.378 137.072 128.557 135.836C132.889 133.379 137.263 130.006 140.044 126.376C142.488 123.186 143.989 119.361 142.372 115.798C142.377 115.779 142.382 115.76 142.386 115.74L142.398 115.682C142.974 113.037 144.388 106.531 144.038 99.4483C148.376 99.3094 152.117 96.6062 154.331 94.1423C155.573 92.7593 156.57 91.1987 156.887 89.868C157.028 89.2802 157.176 88.1325 156.362 87.2307C155.713 86.5105 154.867 86.3857 154.183 86.4408C152.916 85.8876 151.669 85.0126 150.338 83.9498C149.873 83.5785 149.381 83.1698 148.875 82.7489L148.875 82.7484L148.875 82.7484C147.87 81.9128 146.807 81.0287 145.776 80.2924C144.176 79.1494 142.35 78.1231 140.259 77.811C138.315 77.5208 136.305 77.8709 134.213 79.0228C134.059 78.9156 133.903 78.8099 133.745 78.7059C134.18 74.7372 133.962 71.6139 133.173 69.3479C132.361 67.016 130.815 65.3255 128.585 65.0408C126.501 64.7747 124.466 65.8391 122.801 67.4008C121.095 69.0024 119.524 71.347 118.29 74.2524C118.28 74.278 118.269 74.3036 118.26 74.3293C117.636 74.3051 117 74.2928 116.349 74.2928C116.298 74.2928 116.248 74.2948 116.199 74.2989C116.15 74.2948 116.1 74.2928 116.049 74.2928C115.603 74.2928 115.163 74.2985 114.73 74.3099C114.723 74.2907 114.715 74.2715 114.707 74.2524ZM122.06 74.6441C125.192 75.0517 127.925 75.8035 130.301 76.8432C130.499 73.9306 130.243 71.8727 129.776 70.5307C129.234 68.9753 128.541 68.6613 128.13 68.6088C127.572 68.5376 126.563 68.8034 125.263 70.0237C124.177 71.0427 123.049 72.59 122.06 74.6441ZM137.247 81.5983C140.358 84.8008 142.147 88.7262 143.108 92.7187C143.358 93.758 143.553 94.807 143.701 95.8554C146.74 95.8425 149.698 93.9163 151.655 91.7382C152.298 91.0231 152.749 90.3708 153.033 89.8592C151.195 89.1092 149.558 87.9298 148.093 86.7607C147.5 86.2869 146.949 85.828 146.418 85.3855L146.418 85.3852C145.488 84.6104 144.619 83.8858 143.686 83.2194C142.27 82.208 140.995 81.5576 139.728 81.3686C138.982 81.2571 138.167 81.2956 137.247 81.5983ZM139.611 93.5601C141.247 100.361 140.276 107.757 139.436 112.225C136.279 109.772 131.017 108.027 123.382 107.061C122.401 106.936 121.5 107.589 121.369 108.518C121.238 109.447 121.927 110.301 122.908 110.425C132.624 111.655 137.046 114.05 138.647 116.377C140.092 118.477 139.594 121.185 137.145 124.382C134.738 127.523 130.79 130.613 126.717 132.924C124.692 134.072 122.679 135.005 120.866 135.645C119.026 136.296 117.503 136.606 116.427 136.606C116.396 136.606 116.365 136.606 116.334 136.608C116.303 136.606 116.271 136.606 116.24 136.606C113.487 136.606 109.377 135.248 105.248 132.924C101.159 130.622 97.3694 127.55 95.1761 124.441C92.9734 121.319 92.6363 118.612 94.3026 116.444C96.1456 114.046 100.839 111.652 110.611 110.425C111.599 110.301 112.294 109.447 112.162 108.518C112.03 107.589 111.121 106.936 110.133 107.061C102.282 108.047 96.8603 109.838 93.5617 112.326C92.6612 107.853 91.5165 100.392 93.0384 93.5287C93.9695 89.3297 95.8763 85.4747 99.3598 82.6551C102.841 79.837 108.1 77.8897 116.049 77.8897C116.1 77.8897 116.15 77.8877 116.199 77.8836C116.248 77.8877 116.298 77.8897 116.349 77.8897C124.257 77.8897 129.541 79.8355 133.077 82.6621C136.617 85.4911 138.599 89.3577 139.611 93.5601ZM110.903 74.5729C109.922 72.5542 108.808 71.0309 107.735 70.0237C106.434 68.8034 105.425 68.5376 104.868 68.6088C104.456 68.6613 103.763 68.9753 103.222 70.5307C102.768 71.8339 102.514 73.8121 102.681 76.5923C105.056 75.6208 107.784 74.9303 110.903 74.5729ZM95.3259 81.4751C94.5773 81.2872 93.899 81.2746 93.2692 81.3686C92.0023 81.5576 90.7277 82.208 89.3117 83.2194C88.3787 83.8858 87.5093 84.6104 86.5795 85.3852L86.5795 85.3852L86.5792 85.3854L86.5792 85.3854C86.0482 85.8279 85.4975 86.2868 84.904 86.7607C83.4398 87.9298 81.8026 89.1092 79.9646 89.8592C80.2487 90.3708 80.6998 91.0231 81.3423 91.7382C83.2352 93.8448 86.0639 95.7157 88.9974 95.848C89.1254 94.8124 89.2991 93.7764 89.5267 92.75C90.4251 88.6986 92.179 84.7103 95.3259 81.4751ZM105.858 95.1252C106.851 95.1252 107.656 95.9304 107.656 96.9237V99.6214C107.656 100.615 106.851 101.42 105.858 101.42C104.864 101.42 104.059 100.615 104.059 99.6214V96.9237C104.059 95.9304 104.864 95.1252 105.858 95.1252ZM110.054 120.903C110.054 119.91 109.249 119.105 108.256 119.105C107.262 119.105 106.457 119.91 106.457 120.903V124.65C106.457 125.644 107.262 126.449 108.256 126.449C109.249 126.449 110.054 125.644 110.054 124.65V120.903ZM122.943 120.903C122.943 119.91 123.748 119.105 124.742 119.105C125.735 119.105 126.54 119.91 126.54 120.903V124.65C126.54 125.644 125.735 126.449 124.742 126.449C123.748 126.449 122.943 125.644 122.943 124.65V120.903ZM127.14 95.1252C126.147 95.1252 125.341 95.9304 125.341 96.9237V99.6214C125.341 100.615 126.147 101.42 127.14 101.42C128.133 101.42 128.938 100.615 128.938 99.6214V96.9237C128.938 95.9304 128.133 95.1252 127.14 95.1252Z" fill="black"/>
<path d="M71.0097 61.7214L71.0296 60.2215L71.0097 61.7214ZM54.8095 36.5213C55.5786 36.2136 55.9528 35.3406 55.6451 34.5715C55.3374 33.8023 54.4645 33.4282 53.6953 33.7358L54.8095 36.5213ZM81.9382 63.5C79.1564 63.5 77.4856 62.7891 76.0791 62.0495C74.7403 61.3454 73.1299 60.2495 71.0296 60.2215L70.9897 63.2213C72.1677 63.237 72.9251 63.7804 74.6828 64.7047C76.3727 65.5934 78.5271 66.5 81.9382 66.5V63.5ZM71.0296 60.2215C65.1721 60.1434 61.182 58.6061 58.4919 56.4608C55.7979 54.3124 54.2764 51.4492 53.5458 48.4896C52.8117 45.516 52.8907 42.4936 53.3635 40.149C53.6 38.9759 53.9256 38.0204 54.2627 37.3507C54.6447 36.5921 54.895 36.4871 54.8095 36.5213L53.6953 33.7358C52.6991 34.1343 52.0254 35.1233 51.5832 36.0017C51.0962 36.9689 50.6975 38.1932 50.4227 39.556C49.8728 42.2832 49.7811 45.7569 50.6332 49.2086C51.4887 52.6742 53.3103 56.1657 56.6214 58.8063C59.9364 61.45 64.6132 63.1362 70.9897 63.2213L71.0296 60.2215Z" fill="black"/>
<path d="M68.0951 17.6429C73.1951 14.7286 77.5665 14 81.9379 14" stroke="black" stroke-width="3"/>
<path d="M68.4597 17.6428C72.1026 19.4643 59.7722 38.8046 56.0739 36.5857C50.6096 33.3071 45.874 16.1857 68.4597 17.6428Z" stroke="black" stroke-width="3"/>
<path d="M68.4597 17.6428C72.1026 19.4643 59.7722 38.8046 56.0739 36.5857C50.6096 33.3071 45.874 16.1857 68.4597 17.6428Z" stroke="black" stroke-width="3"/>
<path d="M81.9382 54.8C77.5667 54.8 68.4596 51.1571 70.281 42.8191C70.9029 40.4987 74.4044 38.7714 81.9382 38.7714" stroke="black" stroke-width="3"/>
<path d="M71.0095 30.7571L71.0095 32.9429" stroke="black" stroke-width="3" stroke-linecap="round"/>
<path d="M76.474 44.9643L76.8975 45.1055C77.9042 45.441 78.5035 46.4737 78.2954 47.5143V47.5143" stroke="black" stroke-width="3" stroke-linecap="round" stroke-linejoin="round"/>
<path d="M92.8667 61.7214L92.8467 60.2215L92.8667 61.7214ZM109.067 36.5213C108.298 36.2136 107.924 35.3406 108.231 34.5715C108.539 33.8023 109.412 33.4282 110.181 33.7358L109.067 36.5213ZM81.9381 63.5C84.72 63.5 86.3908 62.7891 87.7972 62.0495C89.136 61.3454 90.7465 60.2495 92.8467 60.2215L92.8867 63.2213C91.7086 63.237 90.9512 63.7804 89.1936 64.7047C87.5036 65.5934 85.3492 66.5 81.9381 66.5V63.5ZM92.8467 60.2215C98.7042 60.1434 102.694 58.6061 105.384 56.4608C108.078 54.3124 109.6 51.4492 110.331 48.4896C111.065 45.516 110.986 42.4936 110.513 40.149C110.276 38.9759 109.951 38.0204 109.614 37.3507C109.232 36.5921 108.981 36.4871 109.067 36.5213L110.181 33.7358C111.177 34.1343 111.851 35.1233 112.293 36.0017C112.78 36.9689 113.179 38.1932 113.454 39.556C114.004 42.2832 114.095 45.7569 113.243 49.2086C112.388 52.6742 110.566 56.1657 107.255 58.8063C103.94 61.45 99.2631 63.1362 92.8867 63.2213L92.8467 60.2215Z" fill="black"/>
<path d="M95.7811 17.6429C90.6811 14.7286 86.3097 14 81.9383 14" stroke="black" stroke-width="3"/>
<path d="M95.4167 17.6428C91.7738 19.4643 104.104 38.8046 107.802 36.5857C113.267 33.3071 118.002 16.1857 95.4167 17.6428Z" stroke="black" stroke-width="3"/>
<path d="M95.4167 17.6428C91.7738 19.4643 104.104 38.8046 107.802 36.5857C113.267 33.3071 118.002 16.1857 95.4167 17.6428Z" stroke="black" stroke-width="3"/>
<path d="M81.9382 54.8C86.3096 54.8 95.4167 51.1571 93.5953 42.8191C92.9734 40.4987 89.472 38.7714 81.9382 38.7714" stroke="black" stroke-width="3"/>
<path d="M92.8668 30.7571L92.8668 32.9429" stroke="black" stroke-width="3" stroke-linecap="round"/>
<path d="M87.4024 44.9643L86.9788 45.1054C85.9721 45.441 85.3728 46.4737 85.5809 47.5143V47.5143" stroke="black" stroke-width="3" stroke-linecap="round" stroke-linejoin="round"/>
<path d="M47.08 81.1118C27.6035 81.2455 25.0429 133.812 29.7911 133.78C32.8335 133.759 32.0895 128.853 34.5544 128.836" stroke="black" stroke-width="3"/>
<path d="M46.1283 97.8162L37.3786 110.973L46.3036 123.353" stroke="black" stroke-width="3" stroke-linecap="round" stroke-linejoin="round"/>
<path d="M38.3919 109.184C37.5922 108.967 36.7685 109.44 36.5521 110.24C36.3357 111.04 36.8085 111.863 37.6081 112.08L38.3919 109.184ZM46.75 113L46.3581 114.448L46.75 114.554L47.1419 114.448L46.75 113ZM55.1081 109.184L46.3581 111.552L47.1419 114.448L55.8919 112.08L55.1081 109.184ZM47.1419 111.552L38.3919 109.184L37.6081 112.08L46.3581 114.448L47.1419 111.552Z" fill="black"/>
<path d="M41.1836 92.9391L41.1974 94.9517" stroke="black" stroke-width="3" stroke-linecap="round"/>
<path d="M42.3442 118.96C35.9801 121.95 31.5499 137.205 40.9959 137.141C43.9425 137.12 44.9044 134.167 46.3777 134.157" stroke="black" stroke-width="3" stroke-linecap="round" stroke-linejoin="round"/>
<circle cx="46.4473" cy="72.7672" r="7.88433" transform="rotate(-0.393356 46.4473 72.7672)" stroke="black" stroke-width="3"/>
<circle cx="35.2029" cy="80.2111" r="5.42882" transform="rotate(-0.393356 35.2029 80.2111)" stroke="black" stroke-width="3"/>
<path d="M45.9295 81.1197C65.406 80.986 68.6881 133.513 63.9399 133.545C60.8976 133.566 61.5741 128.65 59.1092 128.667" stroke="black" stroke-width="3"/>
<path d="M46.1283 97.8162L56.04 110.845L46.3036 123.353" stroke="black" stroke-width="3" stroke-linecap="round" stroke-linejoin="round"/>
<path d="M51.9877 92.8648L52.0015 94.8775" stroke="black" stroke-width="3" stroke-linecap="round"/>
<path d="M51.1844 118.899C57.5889 121.802 62.2282 136.995 52.7821 137.06C49.8356 137.08 47.851 134.147 46.3777 134.157" stroke="black" stroke-width="3" stroke-linecap="round" stroke-linejoin="round"/>
<circle cx="6.38433" cy="6.38433" r="7.88433" transform="matrix(-0.999976 0.0068653 0.0068653 0.999976 52.7877 66.3392)" stroke="black" stroke-width="3"/>
<circle cx="3.92882" cy="3.92882" r="5.42882" transform="matrix(-0.999976 0.0068653 0.0068653 0.999976 61.6948 76.1003)" stroke="black" stroke-width="3"/>
</svg>
