<svg width="640" height="556" viewBox="0 0 640 556" fill="none" xmlns="http://www.w3.org/2000/svg">
<path d="M422.733 2.96827C433.317 -3.14209 446.85 0.483923 452.96 11.0672L568.472 211.14H601.139C622.525 211.14 639.862 228.477 639.863 249.863C639.862 271.25 622.525 288.587 601.139 288.587H597.387L555.731 459.716C550.74 480.217 540.66 499.128 526.423 514.7C502.655 540.696 469.053 555.504 433.829 555.504H206.034C170.81 555.504 137.207 540.696 113.439 514.7C99.2021 499.128 89.1221 480.217 84.1318 459.716L42.4756 288.587H38.7237C17.3372 288.587 0 271.25 0 249.863C0.000272935 228.477 17.3373 211.14 38.7237 211.14H71.3905L186.902 11.0672C193.013 0.484044 206.546 -3.14201 217.129 2.96827C227.713 9.07867 231.338 22.6115 225.228 33.195L122.492 211.14H517.371L414.634 33.195C408.524 22.6115 412.15 9.07871 422.733 2.96827Z" fill="#8CC63E"/>
<path d="M196.919 355.788C186.539 345.408 165.409 330.546 144.805 320.327C134.52 315.227 124.944 311.574 117.326 310.089C108.964 308.458 106.249 310.027 105.797 310.48C105.343 310.935 103.778 313.65 105.407 322.007C106.893 329.625 110.543 339.203 115.644 349.488C125.863 370.092 140.726 391.22 151.106 401.6C161.132 411.626 172.89 417.475 183.463 419.162C194.049 420.851 202.675 418.34 208.166 412.85L214.885 419.569L214.109 420.319C197.804 435.523 167.587 430.704 145.452 409.368L144.387 408.32C121.813 385.746 82.7178 320.124 99.0773 303.761L99.4688 303.387C116.459 288.006 181.24 326.67 203.638 349.068L204.684 350.136C226.364 372.628 230.991 403.463 214.885 419.569L208.166 412.85C213.657 407.358 216.167 398.733 214.479 388.146C212.792 377.573 206.945 365.814 196.919 355.788Z" fill="white"/>
<path d="M197.508 455.398C226.123 484.013 250.189 491.995 268.751 473.433C287.313 454.871 279.331 430.805 250.716 402.19C219.812 371.286 217.582 341.467 217.582 341.467C217.582 341.467 176.093 380.775 225.147 429.829C176.093 380.775 136.785 422.264 136.785 422.264C136.785 422.264 166.604 424.494 197.508 455.398Z" fill="white"/>
<path d="M247.355 405.551C231.39 389.586 222.768 373.83 218.135 361.969C216.725 358.36 215.686 355.113 214.922 352.334C212.236 356.38 209.316 361.87 207.562 368.474C203.783 382.697 205.105 403.066 228.507 426.468L228.833 426.829C230.356 428.695 230.246 431.447 228.507 433.187C226.767 434.927 224.015 435.036 222.149 433.513L221.788 433.187L219.603 431.059C197.118 409.708 177.57 408.583 163.792 412.244C157.187 413.999 151.698 416.918 147.652 419.604C150.431 420.368 153.678 421.408 157.287 422.817C169.147 427.45 184.903 436.072 200.869 452.037C214.975 466.143 227.431 474.595 238.151 477.521C248.414 480.323 257.312 478.151 265.391 470.072C273.47 461.993 275.643 453.094 272.841 442.831C269.915 432.112 261.46 419.656 247.355 405.551ZM254.074 398.832C268.583 413.34 278.43 427.224 282.008 440.331C285.711 453.895 282.593 466.308 272.111 476.791C261.628 487.274 249.213 490.393 235.649 486.691C222.541 483.112 208.658 473.265 194.149 458.757C179.212 443.819 164.606 435.876 153.831 431.667C148.438 429.561 143.995 428.389 140.946 427.745C139.421 427.424 138.246 427.233 137.474 427.126C137.09 427.073 136.807 427.04 136.63 427.021C136.542 427.012 136.48 427.007 136.446 427.004L136.418 427.002L136.427 427.002C134.599 426.863 133.013 425.686 132.352 423.977C131.691 422.266 132.075 420.325 133.336 418.994L136.785 422.264C133.336 418.996 133.338 418.992 133.34 418.99L133.397 418.933C133.427 418.902 133.467 418.86 133.515 418.81C133.614 418.711 133.751 418.575 133.924 418.406C134.273 418.066 134.773 417.594 135.416 417.023C136.702 415.882 138.572 414.339 140.965 412.66C145.738 409.312 152.69 405.359 161.351 403.057C172.974 399.969 187.237 399.975 202.927 407.611C195.29 391.921 195.289 377.655 198.377 366.031C200.678 357.371 204.629 350.42 207.977 345.648C209.657 343.254 211.2 341.385 212.341 340.099C212.912 339.455 213.384 338.955 213.723 338.607C213.893 338.432 214.03 338.294 214.13 338.196C214.179 338.147 214.22 338.109 214.25 338.08L214.309 338.021C214.313 338.02 214.389 338.098 217.582 341.468L214.314 338.016C215.645 336.756 217.584 336.373 219.294 337.034C220.899 337.654 222.034 339.09 222.282 340.774L222.321 341.129C222.324 341.162 222.332 341.223 222.341 341.31C222.36 341.487 222.391 341.771 222.444 342.157C222.551 342.928 222.741 344.104 223.063 345.628C223.707 348.677 224.881 353.118 226.987 358.511C231.195 369.286 239.136 383.894 254.074 398.832Z" fill="white"/>
<path d="M181.902 381.196L182.263 380.87C184.13 379.349 186.883 379.457 188.622 381.196C190.361 382.935 190.469 385.688 188.948 387.555L188.622 387.915L183.235 393.303C181.379 395.158 178.371 395.158 176.515 393.303C174.66 391.447 174.66 388.439 176.515 386.583L181.902 381.196Z" fill="white"/>
<path d="M160.357 359.65L160.718 359.324C162.584 357.803 165.337 357.911 167.076 359.65C168.815 361.39 168.923 364.143 167.402 366.009L167.076 366.37L161.689 371.757C159.833 373.612 156.825 373.612 154.97 371.757C153.114 369.901 153.114 366.893 154.97 365.038L160.357 359.65Z" fill="white"/>
<path d="M138.811 338.104L139.172 337.778C141.038 336.257 143.791 336.365 145.53 338.104C147.27 339.844 147.378 342.597 145.856 344.463L145.53 344.824L140.143 350.211C138.287 352.066 135.279 352.066 133.424 350.211C131.568 348.355 131.568 345.347 133.424 343.492L138.811 338.104Z" fill="white"/>
<path d="M122.652 321.945L123.013 321.619C124.879 320.098 127.632 320.206 129.371 321.945C131.11 323.685 131.218 326.438 129.697 328.304L129.371 328.665L123.984 334.052C122.128 335.907 119.12 335.907 117.264 334.052C115.409 332.196 115.409 329.188 117.264 327.333L122.652 321.945Z" fill="white"/>
<path d="M182.332 358.133L182.693 357.807C184.559 356.285 187.312 356.393 189.051 358.133C190.791 359.872 190.899 362.625 189.377 364.491L189.051 364.852L181.831 372.072C179.976 373.928 176.967 373.928 175.112 372.072C173.256 370.217 173.256 367.208 175.112 365.353L182.332 358.133Z" fill="white"/>
<path d="M159.769 380.695L160.13 380.37C161.996 378.848 164.749 378.956 166.488 380.695C168.228 382.435 168.336 385.188 166.814 387.054L166.488 387.415L159.268 394.635C157.413 396.491 154.404 396.491 152.549 394.635C150.693 392.78 150.693 389.771 152.549 387.916L159.769 380.695Z" fill="white"/>
<path d="M161.33 337.131L161.691 336.805C163.557 335.283 166.31 335.392 168.05 337.131C169.789 338.871 169.897 341.624 168.375 343.49L168.05 343.851L160.829 351.071C158.974 352.926 155.965 352.926 154.11 351.071C152.254 349.215 152.254 346.207 154.11 344.352L161.33 337.131Z" fill="white"/>
<path d="M138.767 359.694L139.128 359.368C140.994 357.846 143.747 357.954 145.487 359.694C147.226 361.433 147.334 364.186 145.812 366.052L145.487 366.413L138.266 373.633C136.411 375.489 133.402 375.489 131.547 373.633C129.691 371.778 129.691 368.77 131.547 366.914L138.767 359.694Z" fill="white"/>
<path d="M441.846 345.23C465.011 320.733 507.257 362.98 482.76 386.145C425.43 440.357 384.874 471.156 301.356 526.634C356.834 443.116 387.633 402.56 441.846 345.23ZM564.12 269.88C564.093 269.917 564.064 269.952 564.03 269.985L497.342 336.674C496.591 337.425 497.497 338.641 498.432 338.137L567.389 300.91C567.747 300.717 568.191 300.781 568.479 301.069L572.678 305.269C573.105 305.696 573.013 306.412 572.492 306.717L492.535 353.494C490.401 349.697 487.726 346.237 484.74 343.25C481.798 340.309 478.395 337.669 474.665 335.551L522.019 254.61L527.549 260.139L527.225 260.738C527.224 260.74 527.224 260.742 527.223 260.744L489.996 329.701C489.491 330.636 490.708 331.542 491.459 330.791L558.8 263.451L564.675 269.326L564.12 269.88Z" fill="white"/>
<path d="M302.734 241.197C305.192 240.397 308.71 240.155 311.576 242.588L312.142 243.112L312.813 243.85C314.37 245.703 315.859 248.427 317.194 251.334C318.805 254.84 320.457 259.212 321.941 264.086C323.224 268.298 324.402 272.953 325.327 277.82C325.394 277.597 325.463 277.375 325.535 277.155C327.56 270.943 331.812 264.307 337.632 258.487C344.037 252.082 352.695 249.257 359.264 247.965C362.615 247.306 365.591 247.012 367.737 246.883C368.811 246.819 369.687 246.795 370.306 246.787C370.616 246.783 370.866 246.784 371.043 246.785C371.131 246.786 371.202 246.789 371.254 246.79H371.341L371.348 246.792H371.353C371.353 246.808 371.347 247.088 371.217 251.773L371.355 246.79C374 246.863 376.127 248.991 376.2 251.636L371.217 251.773C375.903 251.644 376.182 251.637 376.198 251.638V251.642L376.2 251.649V251.737C376.201 251.789 376.205 251.86 376.206 251.947C376.207 252.124 376.207 252.374 376.203 252.684C376.196 253.303 376.171 254.179 376.107 255.253C375.978 257.399 375.685 260.376 375.026 263.727C373.734 270.296 370.909 278.953 364.504 285.358C361.953 287.909 359.245 290.158 356.484 292.051C362.391 293.186 367.491 295.68 371.754 299.383C383.232 309.356 386.674 326.533 384.991 342.882C383.291 359.387 376.256 376.64 364.734 387.871C358.924 393.533 351.877 397.748 343.748 399.393C336.206 400.919 328.036 400.166 319.471 396.708C310.905 400.166 302.737 400.919 295.195 399.393C287.065 397.748 280.017 393.533 274.207 387.871C262.685 376.64 255.65 359.387 253.951 342.882C252.267 326.533 255.709 309.356 267.187 299.383C276.374 291.402 289.449 289.042 306.101 293.784C306.125 287.899 306.148 283.845 304.867 279.53C303.556 275.116 300.728 270.102 294.036 263.084L292.646 261.652C289.579 258.552 290.311 254.506 291.206 252.211C292.173 249.733 293.931 247.406 295.813 245.585C297.693 243.767 300.115 242.049 302.734 241.197ZM305.66 250.615C304.872 250.89 303.724 251.596 302.569 252.713C301.511 253.736 300.775 254.785 300.41 255.559C308.173 263.564 312.261 270.081 314.225 276.694C316.01 282.707 315.907 288.524 315.87 294.43C316.391 294.18 316.917 293.94 317.447 293.711C317.008 284.485 315.037 274.968 312.606 266.987C311.229 262.467 309.73 258.526 308.337 255.491C307.193 253.002 306.252 251.428 305.66 250.615ZM365.954 257.036C364.542 257.184 362.92 257.402 361.186 257.743C355.418 258.877 349.043 261.172 344.68 265.535C339.733 270.482 336.457 275.815 335.012 280.246C334.841 280.77 334.701 281.264 334.587 281.727C334.765 281.465 334.972 281.215 335.206 280.983L344.742 271.522L345.122 271.182C347.086 269.593 349.972 269.718 351.79 271.55C353.607 273.383 353.71 276.27 352.105 278.221L351.762 278.599L342.226 288.059C342.186 288.099 342.144 288.137 342.103 288.175C342.311 288.114 342.526 288.049 342.745 287.978C347.176 286.533 352.509 283.257 357.456 278.31C361.819 273.947 364.113 267.572 365.247 261.804C365.588 260.07 365.806 258.448 365.954 257.036Z" fill="white"/>
</svg>
