<svg width="640" height="556" viewBox="0 0 640 556" fill="none" xmlns="http://www.w3.org/2000/svg">
<path d="M422.733 2.96802C433.317 -3.14234 446.849 0.484338 452.96 11.0676L568.473 211.14H601.139C622.525 211.14 639.862 228.477 639.862 249.864C639.862 271.25 622.525 288.587 601.139 288.587H597.387L555.73 459.716C550.74 480.217 540.661 499.129 526.424 514.7C502.656 540.697 469.053 555.503 433.829 555.503H206.034C170.81 555.503 137.208 540.697 113.439 514.7C99.2023 499.129 89.1222 480.217 84.1318 459.716L42.4756 288.587H38.7236C17.3373 288.587 0.000207249 271.25 0 249.864C0.000272934 228.477 17.3374 211.14 38.7236 211.14H71.3906L186.902 11.0676C193.013 0.484574 206.546 -3.14198 217.129 2.96802C227.712 9.07834 231.338 22.6111 225.229 33.1946L122.492 211.14H517.371L414.635 33.1946C408.525 22.6111 412.15 9.07842 422.733 2.96802ZM168.898 297.66C164.937 284.741 151.371 277.267 138.28 280.92C125.189 284.573 117.453 297.992 120.754 311.096L120.92 311.72L168.92 483.72C172.631 497.019 186.421 504.791 199.72 501.08C213.019 497.369 220.791 483.579 217.08 470.28L169.08 298.28L168.898 297.66ZM501.72 280.92C488.629 277.267 475.063 284.741 471.102 297.66L470.92 298.28L422.92 470.28C419.209 483.579 426.981 497.369 440.28 501.08C453.579 504.792 467.369 497.019 471.08 483.72L519.08 311.72L519.246 311.096C522.547 297.992 514.811 284.573 501.72 280.92ZM320 280C306.409 280 295.35 290.846 295.008 304.355L295 305V477C295 490.807 306.193 502 320 502C333.807 502 345 490.807 345 477V305L344.992 304.355C344.65 290.846 333.591 280 320 280Z" fill="#8CC63E"/>
</svg>
