<svg width="243" height="261" viewBox="0 0 243 261" fill="none" xmlns="http://www.w3.org/2000/svg">
<path d="M222.801 204.567C233.418 204.567 242.025 217.201 242.025 232.784C242.025 248.367 233.418 261 222.801 261H19.9987C9.38241 261 0.776208 248.367 0.776062 232.784C0.776062 217.201 9.38232 204.568 19.9987 204.567H222.801ZM222.801 102.284C233.418 102.284 242.025 114.917 242.025 130.5C242.025 146.083 233.418 158.716 222.801 158.716H19.9987C9.38232 158.716 0.776062 146.083 0.776062 130.5C0.776062 114.917 9.38232 102.284 19.9987 102.284H222.801ZM222.801 0C233.418 0 242.025 12.6326 242.025 28.2158C242.025 43.7992 233.418 56.4326 222.801 56.4326H19.9987C9.38231 56.4323 0.776062 43.799 0.776062 28.2158C0.776208 12.6328 9.3824 0.000272534 19.9987 0H222.801Z" fill="#8CC63E"/>
</svg>
