<svg width="291" height="291" viewBox="0 0 291 291" fill="none" xmlns="http://www.w3.org/2000/svg">
<path d="M226.79 6.85478C238.304 -4.65869 260.301 -1.32869 275.922 14.2923C291.543 29.9132 294.872 51.9097 283.359 63.4231L201.675 145.107L283.359 226.79C294.872 238.304 291.543 260.301 275.922 275.922C260.301 291.543 238.304 294.872 226.79 283.359L145.107 201.675L63.4231 283.359C51.9097 294.872 29.9132 291.543 14.2923 275.922C-1.32869 260.301 -4.65868 238.304 6.85476 226.79L88.5384 145.107L6.85476 63.4231C-4.65835 51.9096 -1.32857 29.9131 14.2923 14.2923C29.9131 -1.32856 51.9096 -4.65834 63.4231 6.85478L145.107 88.5384L226.79 6.85478Z" fill="#8CC63E"/>
</svg>
