<svg width="746" height="747" viewBox="0 0 746 747" fill="none" xmlns="http://www.w3.org/2000/svg">
<path d="M96.1665 553.791L552.957 97.0001H745.29L96.1665 746.124L96.1665 553.791Z" fill="#8CC63E"/>
<mask id="path-2-outside-1_210_145" maskUnits="userSpaceOnUse" x="234.988" y="413.526" width="96.1665" height="96.1665" fill="black">
<rect fill="white" x="234.988" y="413.526" width="96.1665" height="96.1665"/>
<path fill-rule="evenodd" clip-rule="evenodd" d="M305.958 485.27C293.061 497.785 272.46 497.666 259.708 484.915C246.837 472.043 246.837 451.175 259.708 438.303C272.58 425.432 293.448 425.432 306.32 438.303C311.893 443.877 315.053 450.95 315.8 458.224L305.959 468.064C308.209 460.041 306.178 451.069 299.866 444.757C290.559 435.45 275.469 435.45 266.162 444.757C256.855 454.064 256.855 469.154 266.162 478.461C275.349 487.648 290.171 487.766 299.503 478.815L305.958 485.27Z"/>
</mask>
<path fill-rule="evenodd" clip-rule="evenodd" d="M305.958 485.27C293.061 497.785 272.46 497.666 259.708 484.915C246.837 472.043 246.837 451.175 259.708 438.303C272.58 425.432 293.448 425.432 306.32 438.303C311.893 443.877 315.053 450.95 315.8 458.224L305.959 468.064C308.209 460.041 306.178 451.069 299.866 444.757C290.559 435.45 275.469 435.45 266.162 444.757C256.855 454.064 256.855 469.154 266.162 478.461C275.349 487.648 290.171 487.766 299.503 478.815L305.958 485.27Z" fill="white"/>
<path d="M305.958 485.27L306.655 485.988L307.383 485.281L306.665 484.563L305.958 485.27ZM315.8 458.224L316.507 458.931L316.843 458.595L316.795 458.122L315.8 458.224ZM305.959 468.064L304.996 467.794L303.965 471.473L306.666 468.772L305.959 468.064ZM299.503 478.815L300.211 478.108L299.518 477.416L298.811 478.094L299.503 478.815ZM259.001 485.622C272.14 498.76 293.365 498.882 306.655 485.988L305.262 484.553C292.756 496.687 272.78 496.572 260.415 484.207L259.001 485.622ZM259.001 437.596C245.739 450.858 245.739 472.36 259.001 485.622L260.415 484.207C247.935 471.727 247.935 451.491 260.415 439.01L259.001 437.596ZM307.027 437.596C293.765 424.334 272.263 424.334 259.001 437.596L260.415 439.01C272.896 426.529 293.132 426.529 305.612 439.01L307.027 437.596ZM316.795 458.122C316.025 450.627 312.769 443.338 307.027 437.596L305.612 439.01C311.018 444.415 314.081 451.272 314.805 458.326L316.795 458.122ZM306.666 468.772L316.507 458.931L315.093 457.517L305.252 467.357L306.666 468.772ZM306.922 468.334C309.265 459.977 307.151 450.628 300.573 444.05L299.159 445.464C305.205 451.51 307.152 460.105 304.996 467.794L306.922 468.334ZM300.573 444.05C290.875 434.352 275.153 434.352 265.455 444.05L266.869 445.464C275.786 436.548 290.242 436.548 299.159 445.464L300.573 444.05ZM265.455 444.05C255.758 453.748 255.758 469.47 265.455 479.168L266.869 477.754C257.953 468.837 257.953 454.381 266.869 445.464L265.455 444.05ZM265.455 479.168C275.028 488.741 290.471 488.864 300.196 479.537L298.811 478.094C289.871 486.669 275.671 486.555 266.869 477.754L265.455 479.168ZM306.665 484.563L300.211 478.108L298.796 479.523L305.251 485.978L306.665 484.563Z" fill="white" mask="url(#path-2-outside-1_210_145)"/>
<path fill-rule="evenodd" clip-rule="evenodd" d="M464.081 329.304L434.277 263.735L443.689 254.323L509.258 284.127L500.294 293.091L485.039 286.117L466.071 305.085L473.045 320.341L464.081 329.304ZM461.121 294.258L474.212 281.168L450.098 270.144L461.121 294.258Z" fill="white"/>
<path fill-rule="evenodd" clip-rule="evenodd" d="M405.324 388.062L375.52 322.492L366.556 331.456L389.503 381.653L339.306 358.705L330.342 367.669L395.912 397.473L405.324 388.062Z" fill="white"/>
<path fill-rule="evenodd" clip-rule="evenodd" d="M478.064 219.947L469.459 228.552L501.729 260.822C510.442 269.535 524.568 269.535 533.281 260.822C541.994 252.109 541.994 237.982 533.281 229.269L501.012 197L492.406 205.605L524.676 237.875C528.636 241.835 528.636 248.256 524.676 252.217C520.715 256.177 514.294 256.177 510.334 252.217L478.064 219.947Z" fill="white"/>
<path fill-rule="evenodd" clip-rule="evenodd" d="M299.507 398.504L290.902 407.109L323.171 439.379C331.884 448.092 346.011 448.092 354.724 439.379C363.437 430.666 363.437 416.54 354.724 407.827L322.454 375.557L313.849 384.162L346.118 416.432C350.079 420.392 350.079 426.813 346.118 430.774C342.158 434.734 335.737 434.734 331.777 430.774L299.507 398.504Z" fill="white"/>
<path fill-rule="evenodd" clip-rule="evenodd" d="M408.506 289.506L383.408 314.604L431.453 362.649L456.552 337.551L447.682 328.681L431.188 345.174L400.883 314.869L417.376 298.375L408.506 289.506Z" fill="white"/>
<rect width="13.1837" height="12.1695" transform="matrix(-0.707107 0.707107 0.707107 0.707107 427.151 308.15)" fill="white"/>
<path d="M244.376 549.067L197 501.691V501.691C202.31 496.381 210.182 494.561 217.285 497.001L249.752 508.159L220.142 478.549L228.82 469.871L276.196 517.247V517.247C270.886 522.557 263.014 524.377 255.911 521.937L223.444 510.779L253.054 540.389L244.376 549.067Z" fill="white"/>
<path d="M161.635 548.758C159.836 544.601 164.051 540.386 168.209 542.184L177.256 546.097C179.023 546.862 181.073 546.543 182.525 545.278L189.964 538.796C193.348 535.848 198.602 538.506 198.231 542.979L197.401 553C197.244 554.895 198.175 556.715 199.804 557.696L208.412 562.881C212.279 565.21 211.324 571.066 206.917 572.045L197.405 574.158C195.51 574.58 194.03 576.06 193.609 577.955L191.495 587.467C190.516 591.874 184.66 592.829 182.331 588.962L177.146 580.354C176.165 578.725 174.345 577.794 172.45 577.951L162.429 578.781C157.956 579.152 155.298 573.898 158.246 570.514L164.728 563.075C165.993 561.623 166.312 559.573 165.548 557.806L161.635 548.758Z" fill="white"/>
<path d="M533.573 176.82C531.775 172.663 535.989 168.448 540.147 170.246L549.194 174.159C550.962 174.924 553.011 174.605 554.464 173.34L561.902 166.858C565.286 163.909 570.54 166.568 570.17 171.041L569.339 181.062C569.182 182.957 570.114 184.777 571.742 185.758L580.351 190.943C584.218 193.272 583.262 199.128 578.855 200.107L569.343 202.22C567.448 202.641 565.968 204.121 565.547 206.017L563.433 215.529C562.454 219.935 556.598 220.891 554.269 217.024L549.084 208.416C548.103 206.787 546.283 205.856 544.388 206.013L534.367 206.843C529.894 207.214 527.236 201.959 530.185 198.575L536.666 191.137C537.932 189.685 538.25 187.635 537.486 185.867L533.573 176.82Z" fill="white"/>
</svg>
